<svg width="10" height="13" viewBox="0 0 10 13" version="1.1" xmlns="http://www.w3.org/2000/svg" xmlns:xlink="http://www.w3.org/1999/xlink">
<title>Group</title>
<desc>Created using Figma</desc>
<g id="Canvas" transform="translate(-5570 1186)">
<g id="Group">
<g id="Group">
<g id="Vector">
<use xlink:href="#path0_fill" transform="translate(5570 -1186)" fill="#FFFFFF"/>
</g>
<g id="Vector">
<use xlink:href="#path1_fill" transform="translate(5573.33 -1183.08)" fill="#FFFFFF"/>
</g>
</g>
</g>
</g>
<defs>
<path id="path0_fill" d="M 5.00539 1.06785e-08C 2.24864 1.06785e-08 8.24796e-08 2.32903 8.24796e-08 5.19552C 8.24796e-08 5.54264 0.0324323 5.88975 0.097297 6.22567C 0.097297 6.24806 0.108108 6.27046 0.108108 6.30405C 0.659457 8.86822 4.54052 12.7201 4.70268 12.8768C 4.78917 12.9664 4.89728 13 5.00539 13C 5.11349 13 5.2216 12.9552 5.30809 12.8768C 5.47025 12.7089 9.32969 8.86822 9.88104 6.36003C 9.88104 6.33764 9.89185 6.31525 9.89185 6.29285C 9.96753 5.93454 9.99996 5.56503 9.99996 5.19552C 10.0108 2.32903 7.76213 1.06785e-08 5.00539 1.06785e-08ZM 9.02699 6.12489C 9.02699 6.14729 9.02699 6.13609 9.02699 6.15848C 8.61618 8.01723 5.9243 10.9509 5.00539 11.9027C 4.08647 10.9509 1.38378 8.01723 0.972969 6.1137C 0.972969 6.0913 0.972969 6.0801 0.962159 6.05771C 0.908105 5.76658 0.875672 5.47545 0.875672 5.18432C 0.875672 2.8329 2.72431 0.906977 4.99458 0.906977C 7.26484 0.906977 9.12429 2.82171 9.12429 5.18432C 9.12429 5.50904 9.09186 5.82257 9.02699 6.12489Z"/>
<path id="path1_fill" d="M 1.67567 0C 0.745943 0 0 0.783807 0 1.73557C 0 2.68734 0.756754 3.47115 1.67567 3.47115C 2.59458 3.47115 3.35134 2.69854 3.35134 1.73557C 3.35134 0.77261 2.6054 0 1.67567 0ZM 1.67567 2.56417C 1.23243 2.56417 0.875672 2.19466 0.875672 1.73557C 0.875672 1.27649 1.23243 0.906977 1.67567 0.906977C 2.11891 0.906977 2.47567 1.27649 2.47567 1.73557C 2.47567 2.19466 2.11891 2.56417 1.67567 2.56417Z"/>
</defs>
</svg>
