<svg width="123" height="40" viewBox="0 0 123 40" version="1.1" xmlns="http://www.w3.org/2000/svg" xmlns:xlink="http://www.w3.org/1999/xlink">
<title>Group</title>
<desc>Created using Figma</desc>
<g id="Canvas" transform="translate(-3670 968)">
<g id="Group">
<g id="Vector">
<use xlink:href="#path0_fill" transform="translate(3674.77 -968)" fill="#FFFFFF"/>
</g>
<g id="Vector">
<use xlink:href="#path1_fill" transform="translate(3670 -950.224)" fill="#FFFFFF"/>
</g>
<g id="Vector">
<use xlink:href="#path2_fill" transform="translate(3707.62 -950.371)" fill="#FFFFFF"/>
</g>
<g id="Vector">
<use xlink:href="#path3_fill" transform="translate(3720.26 -938.023)" fill="#FFFFFF"/>
</g>
<g id="Vector">
<use xlink:href="#path4_fill" transform="translate(3725.25 -950.106)" fill="#FFFFFF"/>
</g>
<g id="Vector">
<use xlink:href="#path5_fill" transform="translate(3735.04 -950.106)" fill="#FFFFFF"/>
</g>
<g id="Vector">
<use xlink:href="#path6_fill" transform="translate(3744.19 -950.106)" fill="#FFFFFF"/>
</g>
<g id="Vector">
<use xlink:href="#path7_fill" transform="translate(3754.26 -950.106)" fill="#FFFFFF"/>
</g>
<g id="Vector">
<use xlink:href="#path8_fill" transform="translate(3764.79 -950.106)" fill="#FFFFFF"/>
</g>
<g id="Vector">
<use xlink:href="#path9_fill" transform="translate(3779.9 -950.106)" fill="#FFFFFF"/>
</g>
<g id="Vector">
<use xlink:href="#path10_fill" transform="translate(3763.02 -931.795)" fill="#FFFFFF"/>
</g>
<g id="Vector">
<use xlink:href="#path11_fill" transform="translate(3765.36 -930.809)" fill="#FFFFFF"/>
</g>
<g id="Vector">
<use xlink:href="#path12_fill" transform="translate(3768.01 -931.532)" fill="#FFFFFF"/>
</g>
<g id="Vector">
<use xlink:href="#path13_fill" transform="translate(3770.04 -931.865)" fill="#FFFFFF"/>
</g>
<g id="Vector">
<use xlink:href="#path14_fill" transform="translate(3770.82 -930.806)" fill="#FFFFFF"/>
</g>
<g id="Vector">
<use xlink:href="#path15_fill" transform="translate(3774.19 -932.004)" fill="#FFFFFF"/>
</g>
<g id="Vector">
<use xlink:href="#path11_fill" transform="translate(3777.31 -930.809)" fill="#FFFFFF"/>
</g>
<g id="Vector">
<use xlink:href="#path16_fill" transform="translate(3780.26 -932.004)" fill="#FFFFFF"/>
</g>
<g id="Vector">
<use xlink:href="#path17_fill" transform="translate(3781.51 -931.81)" fill="#FFFFFF"/>
</g>
<g id="Vector">
<use xlink:href="#path18_fill" transform="translate(3782.54 -930.746)" fill="#FFFFFF"/>
</g>
<g id="Vector">
<use xlink:href="#path19_fill" transform="translate(3785.29 -930.809)" fill="#FFFFFF"/>
</g>
<g id="Vector">
<use xlink:href="#path20_fill" transform="translate(3788.22 -930.814)" fill="#FFFFFF"/>
</g>
</g>
</g>
<defs>
<path id="path0_fill" d="M 30.179 13.6604L 4.44231 13.6604L 6.49364 11.6025L 29.6329 11.6025C 29.3909 10.8976 29.0974 10.2115 28.7549 9.54983L 8.53974 9.54983L 10.591 7.49455L 27.4771 7.49455C 26.9299 6.75677 26.3177 6.06979 25.6479 5.4419L 12.624 5.4419L 14.6728 3.384L 22.9015 3.384C 20.9785 2.2546 18.8309 1.56449 16.6117 1.36281C 16.6117 1.36281 16.6117 1.36281 16.6117 1.34446C 16.5961 0.982634 16.4418 0.640825 16.1811 0.390329C 15.9204 0.139833 15.5734 -3.60863e-06 15.2124 -3.60863e-06C 14.8514 -3.60863e-06 14.5043 0.139833 14.2436 0.390329C 13.9829 0.640825 13.8286 0.982634 13.813 1.34446C 13.813 1.34446 13.813 1.34446 13.813 1.36281C 10.1793 1.69903 6.78639 3.33239 4.25149 5.96588C 1.71659 8.59937 0.207982 12.0581 -1.53113e-05 15.713L 30.4221 15.713C 30.3872 15.0241 30.306 14.3383 30.179 13.6604Z"/>
<path id="path1_fill" d="M 37.9322 2.05789L 39.9809 3.2001e-06L -2.04151e-05 3.2001e-06C 0.166351 2.15784 0.788305 4.2555 1.82451 6.15379C 2.86072 8.05207 4.28749 9.70758 6.01018 11.0104C 5.80928 11.3214 5.67566 11.6713 5.61789 12.0373C 5.56013 12.4034 5.57955 12.7775 5.67486 13.1356C 5.77018 13.4936 5.93928 13.8277 6.17127 14.1161C 6.40326 14.4045 6.69297 14.6409 7.02168 14.8101C 7.3504 14.9792 7.71078 15.0773 8.07963 15.098C 8.44848 15.1187 8.81763 15.0615 9.1631 14.9303C 9.50857 14.799 9.82274 14.5965 10.0854 14.3358C 10.348 14.0752 10.5532 13.7621 10.6877 13.417C 13.58 14.3127 16.6723 14.3264 19.5724 13.4563C 19.7092 13.796 19.9148 14.1036 20.1761 14.3596C 20.4374 14.6156 20.7487 14.8145 21.0905 14.9436C 21.4324 15.0728 21.7972 15.1295 22.1619 15.11C 22.5266 15.0906 22.8834 14.9955 23.2096 14.8308C 23.5359 14.6661 23.8245 14.4352 24.0574 14.1529C 24.2902 13.8706 24.4621 13.5429 24.5623 13.1906C 24.6625 12.8382 24.6889 12.4688 24.6396 12.1058C 24.5903 11.7427 24.4665 11.3938 24.276 11.0812C 26.0365 9.76912 27.4953 8.09281 28.5537 6.16582L 33.8296 6.16582L 35.8783 4.10793L 29.4866 4.10793C 29.7331 3.43862 29.9322 2.7527 30.0824 2.05527L 37.9322 2.05789Z"/>
<path id="path2_fill" d="M 14.0621 8.09003C 13.3514 10.6993 12.2599 12.6917 10.7879 14.0671C 9.2653 15.4827 7.3699 16.1905 5.1017 16.1905C 0.661124 16.1643 -0.880611 13.4642 0.476475 8.09003C 1.12627 5.51394 2.22119 3.52159 3.7612 2.11295C 5.3012 0.70432 7.18961 3.84013e-06 9.42645 3.84013e-06C 11.6703 3.84013e-06 13.1789 0.70432 13.9524 2.11295C 14.7259 3.52159 14.7625 5.51394 14.0621 8.09003ZM 9.94646 8.09003C 10.7112 5.27276 10.1939 3.86413 8.39427 3.86413C 7.95531 3.86644 7.52233 3.96639 7.1265 4.15678C 6.73067 4.34717 6.38184 4.62327 6.10517 4.96517C 5.45363 5.70619 4.95365 6.74781 4.60524 8.09003C 3.88227 10.8863 4.39011 12.295 6.12871 12.3159C 7.86731 12.3369 9.13987 10.9283 9.94646 8.09003Z"/>
<path id="path3_fill" d="M 3.37353 3.59149L 2.55189e-06 3.59149L 0.959001 -2.56008e-06L 4.33259 -2.56008e-06L 3.37353 3.59149Z"/>
<path id="path4_fill" d="M 8.62336 15.6741L 3.06226e-05 15.6741L 4.18104 6.40021e-06L 8.10074 6.40021e-06L 4.93098 11.8676L 9.63461 11.8676L 8.62336 15.6741Z"/>
<path id="path5_fill" d="M 3.89094 15.6741L 1.78632e-05 15.6741L 4.18103 6.40021e-06L 8.07195 6.40021e-06L 3.89094 15.6741Z"/>
<path id="path6_fill" d="M 13.016 6.40021e-06L 4.61218 15.6741L 2.55189e-05 15.6741L 0.373685 6.40021e-06L 4.62525 6.40021e-06L 3.84132 10.2056L 8.44039 6.40021e-06L 13.016 6.40021e-06Z"/>
<path id="path7_fill" d="M 8.6233 15.6741L -3.06226e-05 15.6741L 4.18098 6.40021e-06L 12.7338 6.40021e-06L 11.7199 3.79597L 7.08681 3.79597L 6.49363 6.01639L 10.9516 6.01639L 9.96126 9.66032L 5.51893 9.66032L 4.91528 11.9201L 9.63461 11.9201L 8.6233 15.6741Z"/>
<path id="path8_fill" d="M 11.3096 15.6741L 6.88299 15.6741L 6.13822 11.1258L 5.13482 11.1258L 3.91967 15.6741L -2.2967e-05 15.6741L 4.18099 6.40021e-06L 9.73127 6.40021e-06C 11.395 6.40021e-06 12.5892 0.470135 13.3139 1.41039C 14.0491 2.3821 14.1919 3.70945 13.7425 5.39247C 13.4818 6.34967 13.0262 7.24228 12.4045 8.014C 11.7945 8.79931 11.0494 9.46876 10.2043 9.99063L 11.3096 15.6741ZM 9.60323 5.63629C 9.68011 5.41491 9.7114 5.18017 9.69523 4.94631C 9.67906 4.71245 9.6158 4.48432 9.5092 4.27571C 9.25311 3.872 8.78015 3.67014 8.09028 3.67014L 7.12337 3.67014L 6.07812 7.5631L 7.04503 7.5631C 8.38121 7.5631 9.23391 6.92083 9.60323 5.63629Z"/>
<path id="path9_fill" d="M 13.097 6.40021e-06L 5.78028 10.1846L 4.31428 15.6741L 0.394585 15.6741L 1.86058 10.1846L 0 6.40021e-06L 4.63308 6.40021e-06L 5.03812 5.75424L 8.67035 6.40021e-06L 13.097 6.40021e-06Z"/>
<path id="path10_fill" d="M -3.06226e-05 0L 0.480808 0L 0.480808 3.32934L 2.07484 3.32934L 2.07484 3.73567L -3.06226e-05 3.73567L -3.06226e-05 0Z"/>
<path id="path11_fill" d="M 0.452087 1.49428C 0.441087 1.6187 0.457239 1.74403 0.499424 1.86155C 0.54161 1.97908 0.608821 2.08597 0.696366 2.17479C 0.783912 2.26362 0.889692 2.33224 1.00636 2.37589C 1.12302 2.41953 1.24777 2.43717 1.37191 2.42754C 1.62639 2.43558 1.87954 2.38817 2.114 2.28859L 2.19764 2.63726C 1.91574 2.75561 1.61208 2.81279 1.30659 2.80504C 0.480837 2.80504 2.04151e-05 2.25975 2.04151e-05 1.4497C 2.04151e-05 0.639646 0.475562 2.56008e-06 1.25689 2.56008e-06C 2.13229 2.56008e-06 2.36485 0.770735 2.36485 1.2662C 2.36423 1.34248 2.35904 1.41864 2.34922 1.49428L 0.452087 1.49428ZM 1.87885 1.14561C 1.87885 0.833646 1.75078 0.35915 1.20464 0.35915C 0.713369 0.35915 0.496515 0.815296 0.457318 1.14561L 1.87885 1.14561Z"/>
<path id="path12_fill" d="M 0.888434 0L 0.888434 0.786458L 1.58618 0.786458L 1.58618 1.15871L 0.888434 1.15871L 0.888434 2.60842C 0.888434 2.94135 0.982545 3.13273 1.25431 3.13273C 1.34946 3.13381 1.44437 3.12235 1.53655 3.09864L 1.55741 3.46565C 1.4189 3.5138 1.27278 3.53602 1.12627 3.53119C 1.02963 3.53674 0.932937 3.52137 0.842755 3.48608C 0.752573 3.4508 0.671018 3.39644 0.603643 3.32672C 0.455527 3.12539 0.388368 2.87551 0.415506 2.62677L 0.415506 1.16133L -5.10377e-06 1.16133L -5.10377e-06 0.786458L 0.415506 0.786458L 0.415506 0.141557L 0.888434 0Z"/>
<path id="path13_fill" d="M 0.833574 -5.12017e-06C 0.707985 0.454881 0.532714 0.894466 0.310947 1.31076L 0 1.35009C 0.146159 0.923375 0.255442 0.484836 0.326641 0.0393242L 0.833574 -5.12017e-06Z"/>
<path id="path14_fill" d="M 0.120189 2.24412C 0.31335 2.36522 0.535307 2.4322 0.763009 2.43811C 1.11839 2.43811 1.28563 2.25984 1.28563 2.03963C 1.28563 1.81942 1.14716 1.67786 0.78655 1.54678C 0.305734 1.37376 0.0784016 1.109 0.0784016 0.786551C 0.0784016 0.354 0.425958 9.37611e-05 1.00346 9.37611e-05C 1.23347 -0.00255792 1.46027 0.054326 1.66197 0.165251L 1.53916 0.521775C 1.37406 0.420212 1.18405 0.366657 0.990382 0.367098C 0.702937 0.367098 0.540931 0.534882 0.540931 0.734118C 0.540931 0.933354 0.700319 1.05656 1.05048 1.19026C 1.51562 1.36852 1.7534 1.60185 1.7534 2.00032C 1.7534 2.47219 1.3876 2.80511 0.75261 2.80511C 0.490193 2.80989 0.230952 2.74669 -5.10377e-06 2.62162L 0.120189 2.24412Z"/>
<path id="path15_fill" d="M 2.49552 3.2001e-06L 2.49552 3.24808C 2.49552 3.48664 2.49554 3.75926 2.51645 3.94277L 2.08008 3.94277L 2.05915 3.47615C 1.97131 3.64101 1.83885 3.77766 1.67707 3.8704C 1.51528 3.96315 1.33073 4.00823 1.14455 4.00045C 0.496497 4.00045 -3.06226e-05 3.44993 -3.06226e-05 2.63463C -3.06226e-05 1.74069 0.548752 1.19017 1.20204 1.19017C 1.36093 1.18066 1.51946 1.21379 1.66137 1.28612C 1.80329 1.35846 1.92348 1.4674 2.00952 1.60175L 2.00952 3.2001e-06L 2.49552 3.2001e-06ZM 2.00952 2.35938C 2.01067 2.29062 2.00363 2.22197 1.98859 2.15489C 1.95385 1.99398 1.86507 1.84994 1.7371 1.74686C 1.60914 1.64378 1.44978 1.58792 1.28567 1.58865C 0.781339 1.58865 0.483424 2.03168 0.483424 2.63726C 0.483424 3.18253 0.744737 3.63081 1.26736 3.63081C 1.43468 3.63025 1.59676 3.57219 1.72658 3.46629C 1.85639 3.36039 1.94609 3.21305 1.98074 3.04884C 1.99655 2.97922 2.0036 2.90788 2.00167 2.8365L 2.00952 2.35938Z"/>
<path id="path16_fill" d="M -3.06226e-05 3.2001e-06L 0.48604 3.2001e-06L 0.48604 3.93229L -3.06226e-05 3.93229L -3.06226e-05 3.2001e-06Z"/>
<path id="path17_fill" d="M 0.603812 0.30692C 0.603812 0.387224 0.572055 0.464239 0.515453 0.521023C 0.458851 0.577806 0.382034 0.609714 0.301988 0.609714C 0.221941 0.609714 0.145188 0.577806 0.0885863 0.521023C 0.0319847 0.464239 0.000163438 0.387224 0.000163438 0.30692C -0.00127952 0.266474 0.00557094 0.226162 0.0202595 0.188468C 0.0349481 0.150774 0.0571842 0.116501 0.0855878 0.0877606C 0.113991 0.0590201 0.147985 0.0364172 0.18543 0.0213584C 0.222876 0.00629963 0.263 -0.000894647 0.303327 0.000205725C 0.343645 -0.00131357 0.383794 0.00562759 0.421288 0.0205744C 0.458782 0.0355212 0.492785 0.0581426 0.521067 0.0870086C 0.549349 0.115875 0.571316 0.150345 0.585566 0.188212C 0.599816 0.226078 0.606021 0.266505 0.603812 0.30692ZM 0.0602603 3.74898L 0.0602603 1.06454L 0.546331 1.06454L 0.546331 3.75161L 0.0602603 3.74898Z"/>
<path id="path18_fill" d="M 0.512189 0L 1.03482 1.51C 1.11906 1.73587 1.19141 1.966 1.25166 2.19946L 1.26736 2.19946C 1.32746 1.97663 1.40588 1.7538 1.49473 1.51L 2.01735 0L 2.5269 0L 1.48165 2.68706L 1.01912 2.68706L 2.55189e-05 0L 0.512189 0Z"/>
<path id="path19_fill" d="M 0.452097 1.49428C 0.441098 1.6187 0.457249 1.74403 0.499435 1.86155C 0.54162 1.97908 0.608831 2.08597 0.696377 2.17479C 0.783922 2.26362 0.889702 2.33224 1.00637 2.37589C 1.12303 2.41953 1.24778 2.43717 1.37192 2.42754C 1.6264 2.43558 1.87955 2.38817 2.11401 2.28859L 2.19765 2.63726C 1.91575 2.75561 1.61209 2.81279 1.3066 2.80504C 0.480847 2.80504 3.06226e-05 2.25975 3.06226e-05 1.4497C 3.06226e-05 0.639646 0.475572 2.56008e-06 1.2569 2.56008e-06C 2.1323 2.56008e-06 2.36486 0.770735 2.36486 1.2662C 2.36424 1.34248 2.35905 1.41864 2.34923 1.49428L 0.452097 1.49428ZM 1.87886 1.14561C 1.87886 0.833646 1.75079 0.35915 1.20465 0.35915C 0.71338 0.35915 0.496526 0.815296 0.457329 1.14561L 1.87886 1.14561Z"/>
<path id="path20_fill" d="M 0.0208846 0.904543C 0.0208846 0.587338 0.020928 0.314696 2.2967e-05 0.0656514L 0.425933 0.0656514L 0.441627 0.589956L 0.462552 0.589956C 0.508248 0.425577 0.604632 0.279947 0.737965 0.173975C 0.871297 0.0680026 1.03468 0.00713806 1.20464 0.000113235C 1.2513 -0.000870682 1.29789 0.00441876 1.34314 0.0158417L 1.34314 0.477233C 1.28905 0.465675 1.23384 0.460397 1.17855 0.461504C 1.0122 0.467959 0.853896 0.535222 0.733563 0.65063C 0.613229 0.766039 0.539173 0.921626 0.525265 1.08805C 0.511919 1.16335 0.504906 1.23965 0.504339 1.31612L 0.504339 2.74747L 0.0235003 2.74747L 0.0208846 0.904543Z"/>
</defs>
</svg>
