<svg width="118" height="75" viewBox="0 0 118 75" version="1.1" xmlns="http://www.w3.org/2000/svg" xmlns:xlink="http://www.w3.org/1999/xlink">
<title>Group 2</title>
<desc>Created using Figma</desc>
<g id="Canvas" transform="translate(-4032 -1259)">
<g id="Group 2">
<g id="Vector">
<use xlink:href="#path0_stroke" transform="translate(4068 1261)" fill="#8BC24A"/>
</g>
<g id="Ellipse 2">
<mask id="mask0_outline_ins">
<use xlink:href="#path1_fill" fill="white" transform="translate(4084 1273)"/>
</mask>
<g mask="url(#mask0_outline_ins)">
<use xlink:href="#path2_stroke_2x" transform="translate(4084 1273)" fill="#8BC24A"/>
</g>
</g>
<g id="Vector 2">
<use xlink:href="#path3_stroke" transform="translate(4034 1325)" fill="#8BC24A"/>
</g>
</g>
</g>
<defs>
<path id="path0_stroke" d="M 23 56L 21.9886 57.1077C 22.5808 57.6485 23.4936 57.6277 24.0607 57.0607L 23 56ZM 24.0114 54.8923C 20.2257 51.4357 14.5378 45.6481 9.81006 39.5554C 7.44595 36.5088 5.34757 33.4186 3.84665 30.5302C 2.33043 27.6124 1.5 25.0432 1.5 23L -1.5 23C -1.5 25.7568 -0.413762 28.8376 1.1846 31.9135C 2.79826 35.0189 5.01239 38.2662 7.43994 41.3946C 12.2955 47.6519 18.1077 53.5643 21.9886 57.1077L 24.0114 54.8923ZM 1.5 23C 1.5 17.2761 3.16981 11.908 6.62476 7.99243C 10.0522 4.10797 15.3698 1.5 23 1.5L 23 -1.5C 14.6302 -1.5 8.44777 1.39203 4.37524 6.00757C 0.330186 10.592 -1.5 16.7239 -1.5 23L 1.5 23ZM 23 1.5C 30.5463 1.5 35.8771 4.54565 39.3477 8.71028C 42.8531 12.9168 44.5 18.3185 44.5 23L 47.5 23C 47.5 17.6815 45.6469 11.5832 41.6523 6.78972C 37.6229 1.95435 31.4537 -1.5 23 -1.5L 23 1.5ZM 44.5 23C 44.5 24.6048 43.7012 26.9086 42.166 29.7377C 40.6595 32.5138 38.5533 35.6022 36.1817 38.7162C 31.4408 44.9411 25.7385 51.1402 21.9393 54.9393L 24.0607 57.0607C 27.9282 53.1931 33.7259 46.8922 38.5683 40.5338C 40.9884 37.3562 43.1946 34.132 44.8028 31.1686C 46.3822 28.258 47.5 25.3952 47.5 23L 44.5 23Z"/>
<path id="path1_fill" d="M 14 7C 14 10.866 10.866 14 7 14C 3.13401 14 0 10.866 0 7C 0 3.13401 3.13401 0 7 0C 10.866 0 14 3.13401 14 7Z"/>
<path id="path2_stroke_2x" d="M 11 7C 11 9.20914 9.20914 11 7 11L 7 17C 12.5228 17 17 12.5228 17 7L 11 7ZM 7 11C 4.79086 11 3 9.20914 3 7L -3 7C -3 12.5228 1.47715 17 7 17L 7 11ZM 3 7C 3 4.79086 4.79086 3 7 3L 7 -3C 1.47715 -3 -3 1.47715 -3 7L 3 7ZM 7 3C 9.20914 3 11 4.79086 11 7L 17 7C 17 1.47715 12.5228 -3 7 -3L 7 3Z"/>
<path id="path3_stroke" d="M 114.5 7.5L 114.5 9C 115.107 9 115.654 8.63454 115.886 8.07403C 116.118 7.51351 115.99 6.86834 115.561 6.43934L 114.5 7.5ZM 107 0L 108.061 -1.06066C 107.779 -1.34196 107.398 -1.5 107 -1.5L 107 0ZM 7.5 0L 7.5 -1.5C 7.10218 -1.5 6.72064 -1.34196 6.43934 -1.06066L 7.5 0ZM 0 7.5L -1.06066 6.43934C -1.48966 6.86834 -1.61799 7.51351 -1.38582 8.07403C -1.15365 8.63454 -0.606693 9 2.35514e-16 9L 0 7.5ZM 3 9L 114.5 9L 114.5 6L 3 6L 3 9ZM 115.561 6.43934L 108.061 -1.06066L 105.939 1.06066L 113.439 8.56066L 115.561 6.43934ZM 107 -1.5L 7.5 -1.5L 7.5 1.5L 107 1.5L 107 -1.5ZM 6.43934 -1.06066L -1.06066 6.43934L 1.06066 8.56066L 8.56066 1.06066L 6.43934 -1.06066ZM 0 9L 3 9L 3 6L 0 6L 0 9Z"/>
</defs>
</svg>
