<svg width="128" height="84" viewBox="0 0 128 84" version="1.1" xmlns="http://www.w3.org/2000/svg" xmlns:xlink="http://www.w3.org/1999/xlink">
<title>Group</title>
<desc>Created using Figma</desc>
<g id="Canvas" transform="translate(-3727 -1255)">
<g id="Group">
<g id="Vector">
<use xlink:href="#path0_stroke" transform="translate(3729 1257)" fill="#8BC24A"/>
</g>
<g id="Vector 2">
<use xlink:href="#path1_stroke" transform="translate(3838.42 1258)" fill="#8BC24A"/>
</g>
<g id="Ellipse 2">
<mask id="mask0_outline_ins">
<use xlink:href="#path2_fill" fill="white" transform="translate(3770 1276)"/>
</mask>
<g mask="url(#mask0_outline_ins)">
<use xlink:href="#path3_stroke_2x" transform="translate(3770 1276)" fill="#8BC24A"/>
</g>
</g>
<g id="Ellipse 2.1">
<mask id="mask1_outline_ins">
<use xlink:href="#path4_fill" fill="white" transform="translate(3755 1261)"/>
</mask>
<g mask="url(#mask1_outline_ins)">
<use xlink:href="#path5_stroke_2x" transform="translate(3755 1261)" fill="#8BC24A"/>
</g>
</g>
</g>
</g>
<defs>
<path id="path0_stroke" d="M 7.00004 39L 8.50004 39C 8.50004 38.5397 8.28871 38.1049 7.92678 37.8205L 7.00004 39ZM 7.00004 77L 8.48497 77.2121C 8.49501 77.1419 8.50004 77.071 8.50004 77L 7.00004 77ZM 14 77L 12.5 77C 12.5 77.071 12.5051 77.1419 12.5151 77.2121L 14 77ZM 14 39L 13.2646 37.6926C 12.7923 37.9583 12.5 38.4581 12.5 39L 14 39ZM 22 0L 23.5 0C 23.5 -0.828427 22.8284 -1.5 22 -1.5L 22 0ZM 16.5 0L 16.5 -1.5C 15.6716 -1.5 15 -0.828427 15 3.33067e-16L 16.5 0ZM 13.5 20.5L 12 20.5L 13.5 20.5ZM 13.5 0L 15 0C 15 -0.828427 14.3284 -1.5 13.5 -1.5L 13.5 0ZM 8.5 0L 8.5 -1.5C 7.67157 -1.5 7 -0.828427 7 3.33067e-16L 8.5 0ZM 5.5 20.5L 4 20.5L 5.5 20.5ZM 5.5 0L 7 0C 7 -0.828427 6.32843 -1.5 5.5 -1.5L 5.5 0ZM 0 0L 0 -1.5C -0.828427 -1.5 -1.5 -0.828427 -1.5 3.33067e-16L 0 0ZM 0 25.5L -1.5 25.5L -1.5 25.5L 0 25.5ZM 5.50004 39L 5.50004 77L 8.50004 77L 8.50004 39L 5.50004 39ZM 5.51512 76.7879C 5.3937 77.6378 5.48897 78.916 6.24715 80.031C 7.06799 81.2381 8.49064 82 10.5 82L 10.5 79C 9.30944 79 8.89876 78.5953 8.72793 78.344C 8.49445 78.0007 8.43972 77.5288 8.48497 77.2121L 5.51512 76.7879ZM 10.5 82C 12.5094 82 13.9321 81.2381 14.7529 80.031C 15.5111 78.916 15.6064 77.6378 15.485 76.7879L 12.5151 77.2121C 12.5604 77.5288 12.5056 78.0007 12.2722 78.344C 12.1013 78.5953 11.6906 79 10.5 79L 10.5 82ZM 15.5 77L 15.5 39L 12.5 39L 12.5 77L 15.5 77ZM 14.7354 40.3074C 17.6545 38.6654 23.5 33.4543 23.5 25.5L 20.5 25.5C 20.5 31.9457 15.6789 36.3346 13.2646 37.6926L 14.7354 40.3074ZM 23.5 25.5C 23.5 25.4859 23.5 25.4719 23.5 25.4577C 23.5 25.4436 23.5 25.4295 23.5 25.4154C 23.5 25.4012 23.5 25.3871 23.5 25.3729C 23.5 25.3587 23.5 25.3445 23.5 25.3302C 23.5 25.316 23.5 25.3017 23.5 25.2875C 23.5 25.2732 23.5 25.2589 23.5 25.2446C 23.5 25.2303 23.5 25.2159 23.5 25.2016C 23.5 25.1872 23.5 25.1728 23.5 25.1584C 23.5 25.144 23.5 25.1296 23.5 25.1152C 23.5 25.1008 23.5 25.0863 23.5 25.0718C 23.5 25.0573 23.5 25.0428 23.5 25.0283C 23.5 25.0138 23.5 24.9992 23.5 24.9847C 23.5 24.9701 23.5 24.9555 23.5 24.9409C 23.5 24.9263 23.5 24.9117 23.5 24.8971C 23.5 24.8824 23.5 24.8678 23.5 24.8531C 23.5 24.8384 23.5 24.8237 23.5 24.809C 23.5 24.7943 23.5 24.7795 23.5 24.7648C 23.5 24.75 23.5 24.7352 23.5 24.7204C 23.5 24.7056 23.5 24.6908 23.5 24.676C 23.5 24.6611 23.5 24.6463 23.5 24.6314C 23.5 24.6165 23.5 24.6016 23.5 24.5867C 23.5 24.5718 23.5 24.5568 23.5 24.5419C 23.5 24.5269 23.5 24.5119 23.5 24.497C 23.5 24.482 23.5 24.4669 23.5 24.4519C 23.5 24.4369 23.5 24.4218 23.5 24.4068C 23.5 24.3917 23.5 24.3766 23.5 24.3615C 23.5 24.3464 23.5 24.3313 23.5 24.3161C 23.5 24.301 23.5 24.2858 23.5 24.2706C 23.5 24.2554 23.5 24.2402 23.5 24.225C 23.5 24.2098 23.5 24.1945 23.5 24.1793C 23.5 24.164 23.5 24.1488 23.5 24.1335C 23.5 24.1182 23.5 24.1029 23.5 24.0875C 23.5 24.0722 23.5 24.0568 23.5 24.0415C 23.5 24.0261 23.5 24.0107 23.5 23.9953C 23.5 23.9799 23.5 23.9645 23.5 23.9491C 23.5 23.9336 23.5 23.9182 23.5 23.9027C 23.5 23.8872 23.5 23.8717 23.5 23.8562C 23.5 23.8407 23.5 23.8252 23.5 23.8096C 23.5 23.7941 23.5 23.7785 23.5 23.7629C 23.5 23.7473 23.5 23.7317 23.5 23.7161C 23.5 23.7005 23.5 23.6849 23.5 23.6692C 23.5 23.6536 23.5 23.6379 23.5 23.6222C 23.5 23.6065 23.5 23.5908 23.5 23.5751C 23.5 23.5594 23.5 23.5436 23.5 23.5279C 23.5 23.5121 23.5 23.4963 23.5 23.4805C 23.5 23.4648 23.5 23.4489 23.5 23.4331C 23.5 23.4173 23.5 23.4015 23.5 23.3856C 23.5 23.3697 23.5 23.3539 23.5 23.338C 23.5 23.3221 23.5 23.3062 23.5 23.2902C 23.5 23.2743 23.5 23.2584 23.5 23.2424C 23.5 23.2265 23.5 23.2105 23.5 23.1945C 23.5 23.1785 23.5 23.1625 23.5 23.1465C 23.5 23.1304 23.5 23.1144 23.5 23.0984C 23.5 23.0823 23.5 23.0662 23.5 23.0501C 23.5 23.034 23.5 23.0179 23.5 23.0018C 23.5 22.9857 23.5 22.9696 23.5 22.9534C 23.5 22.9372 23.5 22.9211 23.5 22.9049C 23.5 22.8887 23.5 22.8725 23.5 22.8563C 23.5 22.8401 23.5 22.8238 23.5 22.8076C 23.5 22.7913 23.5 22.7751 23.5 22.7588C 23.5 22.7425 23.5 22.7262 23.5 22.7099C 23.5 22.6936 23.5 22.6773 23.5 22.6609C 23.5 22.6446 23.5 22.6282 23.5 22.6119C 23.5 22.5955 23.5 22.5791 23.5 22.5627C 23.5 22.5463 23.5 22.5299 23.5 22.5134C 23.5 22.497 23.5 22.4806 23.5 22.4641C 23.5 22.4476 23.5 22.4312 23.5 22.4147C 23.5 22.3982 23.5 22.3817 23.5 22.3651C 23.5 22.3486 23.5 22.3321 23.5 22.3155C 23.5 22.299 23.5 22.2824 23.5 22.2658C 23.5 22.2492 23.5 22.2326 23.5 22.216C 23.5 22.1994 23.5 22.1828 23.5 22.1661C 23.5 22.1495 23.5 22.1329 23.5 22.1162C 23.5 22.0995 23.5 22.0828 23.5 22.0661C 23.5 22.0494 23.5 22.0327 23.5 22.016C 23.5 21.9993 23.5 21.9825 23.5 21.9658C 23.5 21.949 23.5 21.9323 23.5 21.9155C 23.5 21.8987 23.5 21.8819 23.5 21.8651C 23.5 21.8483 23.5 21.8314 23.5 21.8146C 23.5 21.7978 23.5 21.7809 23.5 21.7641C 23.5 21.7472 23.5 21.7303 23.5 21.7134C 23.5 21.6965 23.5 21.6796 23.5 21.6627C 23.5 21.6458 23.5 21.6288 23.5 21.6119C 23.5 21.595 23.5 21.578 23.5 21.561C 23.5 21.544 23.5 21.5271 23.5 21.5101C 23.5 21.4931 23.5 21.476 23.5 21.459C 23.5 21.442 23.5 21.425 23.5 21.4079C 23.5 21.3909 23.5 21.3738 23.5 21.3567C 23.5 21.3396 23.5 21.3225 23.5 21.3054C 23.5 21.2883 23.5 21.2712 23.5 21.2541C 23.5 21.237 23.5 21.2198 23.5 21.2027C 23.5 21.1855 23.5 21.1683 23.5 21.1512C 23.5 21.134 23.5 21.1168 23.5 21.0996C 23.5 21.0824 23.5 21.0652 23.5 21.0479C 23.5 21.0307 23.5 21.0135 23.5 20.9962C 23.5 20.979 23.5 20.9617 23.5 20.9444C 23.5 20.9271 23.5 20.9098 23.5 20.8925C 23.5 20.8752 23.5 20.8579 23.5 20.8406C 23.5 20.8233 23.5 20.8059 23.5 20.7886C 23.5 20.7712 23.5 20.7539 23.5 20.7365C 23.5 20.7191 23.5 20.7017 23.5 20.6843C 23.5 20.6669 23.5 20.6495 23.5 20.6321C 23.5 20.6147 23.5 20.5973 23.5 20.5798C 23.5 20.5624 23.5 20.5449 23.5 20.5274C 23.5 20.51 23.5 20.4925 23.5 20.475C 23.5 20.4575 23.5 20.44 23.5 20.4225C 23.5 20.405 23.5 20.3875 23.5 20.3699C 23.5 20.3524 23.5 20.3349 23.5 20.3173C 23.5 20.2998 23.5 20.2822 23.5 20.2646C 23.5 20.247 23.5 20.2294 23.5 20.2118C 23.5 20.1943 23.5 20.1766 23.5 20.159C 23.5 20.1414 23.5 20.1238 23.5 20.1061C 23.5 20.0885 23.5 20.0708 23.5 20.0532C 23.5 20.0355 23.5 20.0178 23.5 20.0001C 23.5 19.9825 23.5 19.9648 23.5 19.9471C 23.5 19.9294 23.5 19.9116 23.5 19.8939C 23.5 19.8762 23.5 19.8585 23.5 19.8407C 23.5 19.823 23.5 19.8052 23.5 19.7874C 23.5 19.7697 23.5 19.7519 23.5 19.7341C 23.5 19.7163 23.5 19.6985 23.5 19.6807C 23.5 19.6629 23.5 19.6451 23.5 19.6273C 23.5 19.6095 23.5 19.5916 23.5 19.5738C 23.5 19.5559 23.5 19.5381 23.5 19.5202C 23.5 19.5024 23.5 19.4845 23.5 19.4666C 23.5 19.4487 23.5 19.4308 23.5 19.4129C 23.5 19.395 23.5 19.3771 23.5 19.3592C 23.5 19.3413 23.5 19.3233 23.5 19.3054C 23.5 19.2875 23.5 19.2695 23.5 19.2516C 23.5 19.2336 23.5 19.2156 23.5 19.1977C 23.5 19.1797 23.5 19.1617 23.5 19.1437C 23.5 19.1257 23.5 19.1077 23.5 19.0897C 23.5 19.0717 23.5 19.0537 23.5 19.0357C 23.5 19.0176 23.5 18.9996 23.5 18.9815C 23.5 18.9635 23.5 18.9454 23.5 18.9274C 23.5 18.9093 23.5 18.8913 23.5 18.8732C 23.5 18.8551 23.5 18.837 23.5 18.8189C 23.5 18.8008 23.5 18.7827 23.5 18.7646C 23.5 18.7465 23.5 18.7284 23.5 18.7102C 23.5 18.6921 23.5 18.674 23.5 18.6558C 23.5 18.6377 23.5 18.6195 23.5 18.6014C 23.5 18.5832 23.5 18.5651 23.5 18.5469C 23.5 18.5287 23.5 18.5105 23.5 18.4923C 23.5 18.4741 23.5 18.4559 23.5 18.4377C 23.5 18.4195 23.5 18.4013 23.5 18.3831C 23.5 18.3649 23.5 18.3466 23.5 18.3284C 23.5 18.3102 23.5 18.2919 23.5 18.2737C 23.5 18.2554 23.5 18.2372 23.5 18.2189C 23.5 18.2006 23.5 18.1823 23.5 18.1641C 23.5 18.1458 23.5 18.1275 23.5 18.1092C 23.5 18.0909 23.5 18.0726 23.5 18.0543C 23.5 18.036 23.5 18.0177 23.5 17.9994C 23.5 17.981 23.5 17.9627 23.5 17.9444C 23.5 17.926 23.5 17.9077 23.5 17.8893C 23.5 17.871 23.5 17.8526 23.5 17.8343C 23.5 17.8159 23.5 17.7975 23.5 17.7792C 23.5 17.7608 23.5 17.7424 23.5 17.724C 23.5 17.7056 23.5 17.6872 23.5 17.6688C 23.5 17.6504 23.5 17.632 23.5 17.6136C 23.5 17.5952 23.5 17.5768 23.5 17.5583C 23.5 17.5399 23.5 17.5215 23.5 17.5031C 23.5 17.4846 23.5 17.4662 23.5 17.4477C 23.5 17.4293 23.5 17.4108 23.5 17.3924C 23.5 17.3739 23.5 17.3554 23.5 17.337C 23.5 17.3185 23.5 17.3 23.5 17.2815C 23.5 17.263 23.5 17.2445 23.5 17.226C 23.5 17.2076 23.5 17.189 23.5 17.1705C 23.5 17.152 23.5 17.1335 23.5 17.115C 23.5 17.0965 23.5 17.078 23.5 17.0594C 23.5 17.0409 23.5 17.0224 23.5 17.0038C 23.5 16.9853 23.5 16.9668 23.5 16.9482C 23.5 16.9297 23.5 16.9111 23.5 16.8926C 23.5 16.874 23.5 16.8554 23.5 16.8369C 23.5 16.8183 23.5 16.7997 23.5 16.7811C 23.5 16.7626 23.5 16.744 23.5 16.7254C 23.5 16.7068 23.5 16.6882 23.5 16.6696C 23.5 16.651 23.5 16.6324 23.5 16.6138C 23.5 16.5952 23.5 16.5766 23.5 16.558C 23.5 16.5394 23.5 16.5208 23.5 16.5021C 23.5 16.4835 23.5 16.4649 23.5 16.4463C 23.5 16.4276 23.5 16.409 23.5 16.3904C 23.5 16.3717 23.5 16.3531 23.5 16.3344C 23.5 16.3158 23.5 16.2971 23.5 16.2785C 23.5 16.2598 23.5 16.2412 23.5 16.2225C 23.5 16.2038 23.5 16.1852 23.5 16.1665C 23.5 16.1478 23.5 16.1292 23.5 16.1105C 23.5 16.0918 23.5 16.0731 23.5 16.0544C 23.5 16.0358 23.5 16.0171 23.5 15.9984C 23.5 15.9797 23.5 15.961 23.5 15.9423C 23.5 15.9236 23.5 15.9049 23.5 15.8862C 23.5 15.8675 23.5 15.8488 23.5 15.8301C 23.5 15.8114 23.5 15.7926 23.5 15.7739C 23.5 15.7552 23.5 15.7365 23.5 15.7178C 23.5 15.6991 23.5 15.6803 23.5 15.6616C 23.5 15.6429 23.5 15.6241 23.5 15.6054C 23.5 15.5867 23.5 15.5679 23.5 15.5492C 23.5 15.5305 23.5 15.5117 23.5 15.493C 23.5 15.4742 23.5 15.4555 23.5 15.4367C 23.5 15.418 23.5 15.3992 23.5 15.3805C 23.5 15.3617 23.5 15.343 23.5 15.3242C 23.5 15.3054 23.5 15.2867 23.5 15.2679C 23.5 15.2492 23.5 15.2304 23.5 15.2116C 23.5 15.1929 23.5 15.1741 23.5 15.1553C 23.5 15.1365 23.5 15.1178 23.5 15.099C 23.5 15.0802 23.5 15.0615 23.5 15.0427C 23.5 15.0239 23.5 15.0051 23.5 14.9863C 23.5 14.9675 23.5 14.9488 23.5 14.93C 23.5 14.9112 23.5 14.8924 23.5 14.8736C 23.5 14.8548 23.5 14.836 23.5 14.8173C 23.5 14.7985 23.5 14.7797 23.5 14.7609C 23.5 14.7421 23.5 14.7233 23.5 14.7045C 23.5 14.6857 23.5 14.6669 23.5 14.6481C 23.5 14.6293 23.5 14.6105 23.5 14.5917C 23.5 14.5729 23.5 14.5541 23.5 14.5353C 23.5 14.5165 23.5 14.4977 23.5 14.4789C 23.5 14.4601 23.5 14.4413 23.5 14.4225C 23.5 14.4037 23.5 14.3849 23.5 14.3661C 23.5 14.3472 23.5 14.3284 23.5 14.3096C 23.5 14.2908 23.5 14.272 23.5 14.2532C 23.5 14.2344 23.5 14.2156 23.5 14.1968C 23.5 14.178 23.5 14.1592 23.5 14.1403C 23.5 14.1215 23.5 14.1027 23.5 14.0839C 23.5 14.0651 23.5 14.0463 23.5 14.0275C 23.5 14.0087 23.5 13.9899 23.5 13.9711C 23.5 13.9522 23.5 13.9334 23.5 13.9146C 23.5 13.8958 23.5 13.877 23.5 13.8582C 23.5 13.8394 23.5 13.8206 23.5 13.8018C 23.5 13.783 23.5 13.7641 23.5 13.7453C 23.5 13.7265 23.5 13.7077 23.5 13.6889C 23.5 13.6701 23.5 13.6513 23.5 13.6325C 23.5 13.6137 23.5 13.5949 23.5 13.5761C 23.5 13.5573 23.5 13.5385 23.5 13.5197C 23.5 13.5009 23.5 13.4821 23.5 13.4633C 23.5 13.4445 23.5 13.4257 23.5 13.4069C 23.5 13.3881 23.5 13.3693 23.5 13.3505C 23.5 13.3317 23.5 13.3129 23.5 13.2941C 23.5 13.2753 23.5 13.2565 23.5 13.2377C 23.5 13.2189 23.5 13.2001 23.5 13.1813C 23.5 13.1625 23.5 13.1437 23.5 13.125C 23.5 13.1062 23.5 13.0874 23.5 13.0686C 23.5 13.0498 23.5 13.031 23.5 13.0123C 23.5 12.9935 23.5 12.9747 23.5 12.9559C 23.5 12.9371 23.5 12.9184 23.5 12.8996C 23.5 12.8808 23.5 12.862 23.5 12.8433C 23.5 12.8245 23.5 12.8057 23.5 12.787C 23.5 12.7682 23.5 12.7494 23.5 12.7307C 23.5 12.7119 23.5 12.6932 23.5 12.6744C 23.5 12.6557 23.5 12.6369 23.5 12.6181C 23.5 12.5994 23.5 12.5806 23.5 12.5619C 23.5 12.5432 23.5 12.5244 23.5 12.5057C 23.5 12.4869 23.5 12.4682 23.5 12.4495C 23.5 12.4307 23.5 12.412 23.5 12.3932C 23.5 12.3745 23.5 12.3558 23.5 12.3371C 23.5 12.3183 23.5 12.2996 23.5 12.2809C 23.5 12.2622 23.5 12.2435 23.5 12.2247C 23.5 12.206 23.5 12.1873 23.5 12.1686C 23.5 12.1499 23.5 12.1312 23.5 12.1125C 23.5 12.0938 23.5 12.0751 23.5 12.0564C 23.5 12.0377 23.5 12.019 23.5 12.0003C 23.5 11.9816 23.5 11.963 23.5 11.9443C 23.5 11.9256 23.5 11.9069 23.5 11.8882C 23.5 11.8696 23.5 11.8509 23.5 11.8322C 23.5 11.8136 23.5 11.7949 23.5 11.7762C 23.5 11.7576 23.5 11.7389 23.5 11.7203C 23.5 11.7016 23.5 11.683 23.5 11.6643C 23.5 11.6457 23.5 11.6271 23.5 11.6084C 23.5 11.5898 23.5 11.5712 23.5 11.5525C 23.5 11.5339 23.5 11.5153 23.5 11.4967C 23.5 11.478 23.5 11.4594 23.5 11.4408C 23.5 11.4222 23.5 11.4036 23.5 11.385C 23.5 11.3664 23.5 11.3478 23.5 11.3292C 23.5 11.3106 23.5 11.292 23.5 11.2735C 23.5 11.2549 23.5 11.2363 23.5 11.2177C 23.5 11.1992 23.5 11.1806 23.5 11.162C 23.5 11.1435 23.5 11.1249 23.5 11.1063C 23.5 11.0878 23.5 11.0692 23.5 11.0507C 23.5 11.0322 23.5 11.0136 23.5 10.9951C 23.5 10.9766 23.5 10.958 23.5 10.9395C 23.5 10.921 23.5 10.9025 23.5 10.884C 23.5 10.8654 23.5 10.8469 23.5 10.8284C 23.5 10.8099 23.5 10.7914 23.5 10.7729C 23.5 10.7545 23.5 10.736 23.5 10.7175C 23.5 10.699 23.5 10.6805 23.5 10.6621C 23.5 10.6436 23.5 10.6251 23.5 10.6067C 23.5 10.5882 23.5 10.5698 23.5 10.5513C 23.5 10.5329 23.5 10.5145 23.5 10.496C 23.5 10.4776 23.5 10.4592 23.5 10.4407C 23.5 10.4223 23.5 10.4039 23.5 10.3855C 23.5 10.3671 23.5 10.3487 23.5 10.3303C 23.5 10.3119 23.5 10.2935 23.5 10.2751C 23.5 10.2567 23.5 10.2384 23.5 10.22C 23.5 10.2016 23.5 10.1833 23.5 10.1649C 23.5 10.1466 23.5 10.1282 23.5 10.1099C 23.5 10.0915 23.5 10.0732 23.5 10.0549C 23.5 10.0365 23.5 10.0182 23.5 9.99989C 23.5 9.98157 23.5 9.96326 23.5 9.94496C 23.5 9.92666 23.5 9.90836 23.5 9.89007C 23.5 9.87179 23.5 9.85351 23.5 9.83523C 23.5 9.81696 23.5 9.79869 23.5 9.78043C 23.5 9.76217 23.5 9.74392 23.5 9.72568C 23.5 9.70743 23.5 9.68919 23.5 9.67097C 23.5 9.65274 23.5 9.63451 23.5 9.6163C 23.5 9.59808 23.5 9.57988 23.5 9.56168C 23.5 9.54348 23.5 9.52529 23.5 9.5071C 23.5 9.48892 23.5 9.47074 23.5 9.45257C 23.5 9.4344 23.5 9.41624 23.5 9.39809C 23.5 9.37994 23.5 9.36179 23.5 9.34366C 23.5 9.32552 23.5 9.30739 23.5 9.28927C 23.5 9.27115 23.5 9.25304 23.5 9.23493C 23.5 9.21683 23.5 9.19873 23.5 9.18065C 23.5 9.16256 23.5 9.14448 23.5 9.12641C 23.5 9.10834 23.5 9.09028 23.5 9.07222C 23.5 9.05417 23.5 9.03612 23.5 9.01809C 23.5 9.00005 23.5 8.98202 23.5 8.964C 23.5 8.94598 23.5 8.92797 23.5 8.90997C 23.5 8.89197 23.5 8.87398 23.5 8.85599C 23.5 8.83801 23.5 8.82003 23.5 8.80207C 23.5 8.7841 23.5 8.76614 23.5 8.7482C 23.5 8.73025 23.5 8.71231 23.5 8.69438C 23.5 8.67645 23.5 8.65853 23.5 8.64062C 23.5 8.62271 23.5 8.60481 23.5 8.58691C 23.5 8.56902 23.5 8.55114 23.5 8.53327C 23.5 8.51539 23.5 8.49753 23.5 8.47967C 23.5 8.46182 23.5 8.44397 23.5 8.42614C 23.5 8.4083 23.5 8.39048 23.5 8.37266C 23.5 8.35485 23.5 8.33704 23.5 8.31924C 23.5 8.30145 23.5 8.28366 23.5 8.26589C 23.5 8.24811 23.5 8.23034 23.5 8.21259C 23.5 8.19483 23.5 8.17708 23.5 8.15935C 23.5 8.14161 23.5 8.12389 23.5 8.10617C 23.5 8.08846 23.5 8.07075 23.5 8.05305C 23.5 8.03536 23.5 8.01768 23.5 8C 23.5 7.98233 23.5 7.96466 23.5 7.94701C 23.5 7.92936 23.5 7.91171 23.5 7.89408C 23.5 7.87645 23.5 7.85883 23.5 7.84122C 23.5 7.82361 23.5 7.80601 23.5 7.78842C 23.5 7.77083 23.5 7.75325 23.5 7.73568C 23.5 7.71812 23.5 7.70056 23.5 7.68302C 23.5 7.66547 23.5 7.64794 23.5 7.63041C 23.5 7.61289 23.5 7.59538 23.5 7.57788C 23.5 7.56038 23.5 7.54289 23.5 7.52541C 23.5 7.50793 23.5 7.49046 23.5 7.47301C 23.5 7.45555 23.5 7.43811 23.5 7.42068C 23.5 7.40324 23.5 7.38582 23.5 7.36841C 23.5 7.351 23.5 7.3336 23.5 7.31622C 23.5 7.29883 23.5 7.28146 23.5 7.26409C 23.5 7.24673 23.5 7.22938 23.5 7.21204C 23.5 7.1947 23.5 7.17738 23.5 7.16006C 23.5 7.14275 23.5 7.12544 23.5 7.10815C 23.5 7.09086 23.5 7.07358 23.5 7.05631C 23.5 7.03905 23.5 7.02179 23.5 7.00455C 23.5 6.98731 23.5 6.97008 23.5 6.95286C 23.5 6.93564 23.5 6.91844 23.5 6.90125C 23.5 6.88405 23.5 6.86687 23.5 6.8497C 23.5 6.83254 23.5 6.81538 23.5 6.79824C 23.5 6.7811 23.5 6.76397 23.5 6.74685C 23.5 6.72973 23.5 6.71263 23.5 6.69554C 23.5 6.67844 23.5 6.66137 23.5 6.6443C 23.5 6.62723 23.5 6.61018 23.5 6.59314C 23.5 6.5761 23.5 6.55907 23.5 6.54206C 23.5 6.52505 23.5 6.50805 23.5 6.49106C 23.5 6.47407 23.5 6.4571 23.5 6.44014C 23.5 6.42318 23.5 6.40623 23.5 6.3893C 23.5 6.37236 23.5 6.35544 23.5 6.33854C 23.5 6.32163 23.5 6.30474 23.5 6.28786C 23.5 6.27098 23.5 6.25411 23.5 6.23726C 23.5 6.22041 23.5 6.20357 23.5 6.18674C 23.5 6.16992 23.5 6.15311 23.5 6.13631C 23.5 6.11951 23.5 6.10273 23.5 6.08596C 23.5 6.06919 23.5 6.05243 23.5 6.03569C 23.5 6.01895 23.5 6.00223 23.5 5.98551C 23.5 5.9688 23.5 5.9521 23.5 5.93542C 23.5 5.91873 23.5 5.90206 23.5 5.88541C 23.5 5.86875 23.5 5.85211 23.5 5.83548C 23.5 5.81886 23.5 5.80224 23.5 5.78565C 23.5 5.76905 23.5 5.75247 23.5 5.7359C 23.5 5.71933 23.5 5.70278 23.5 5.68624C 23.5 5.6697 23.5 5.65317 23.5 5.63666C 23.5 5.62015 23.5 5.60366 23.5 5.58718C 23.5 5.5707 23.5 5.55424 23.5 5.53779C 23.5 5.52134 23.5 5.5049 23.5 5.48848C 23.5 5.47206 23.5 5.45566 23.5 5.43927C 23.5 5.42288 23.5 5.40651 23.5 5.39015C 23.5 5.37379 23.5 5.35745 23.5 5.34112C 23.5 5.3248 23.5 5.30848 23.5 5.29219C 23.5 5.27589 23.5 5.25961 23.5 5.24335C 23.5 5.22708 23.5 5.21083 23.5 5.1946C 23.5 5.17836 23.5 5.16214 23.5 5.14594C 23.5 5.12974 23.5 5.11355 23.5 5.09738C 23.5 5.08121 23.5 5.06506 23.5 5.04892C 23.5 5.03278 23.5 5.01666 23.5 5.00055C 23.5 4.98445 23.5 4.96836 23.5 4.95228C 23.5 4.93621 23.5 4.92015 23.5 4.90411C 23.5 4.88807 23.5 4.87204 23.5 4.85603C 23.5 4.84002 23.5 4.82403 23.5 4.80806C 23.5 4.79208 23.5 4.77612 23.5 4.76018C 23.5 4.74423 23.5 4.72831 23.5 4.7124C 23.5 4.69649 23.5 4.6806 23.5 4.66472C 23.5 4.64884 23.5 4.63299 23.5 4.61714C 23.5 4.6013 23.5 4.58548 23.5 4.56967C 23.5 4.55386 23.5 4.53807 23.5 4.52229C 23.5 4.50652 23.5 4.49076 23.5 4.47502C 23.5 4.45928 23.5 4.44356 23.5 4.42785C 23.5 4.41215 23.5 4.39646 23.5 4.38079C 23.5 4.36512 23.5 4.34946 23.5 4.33383C 23.5 4.31819 23.5 4.30257 23.5 4.28697C 23.5 4.27137 23.5 4.25579 23.5 4.24022C 23.5 4.22465 23.5 4.20911 23.5 4.19358C 23.5 4.17805 23.5 4.16253 23.5 4.14704C 23.5 4.13154 23.5 4.11607 23.5 4.10061C 23.5 4.08515 23.5 4.06971 23.5 4.05428C 23.5 4.03886 23.5 4.02346 23.5 4.00807C 23.5 3.99268 23.5 3.97731 23.5 3.96196C 23.5 3.94661 23.5 3.93128 23.5 3.91597C 23.5 3.90065 23.5 3.88536 23.5 3.87008C 23.5 3.8548 23.5 3.83954 23.5 3.8243C 23.5 3.80906 23.5 3.79384 23.5 3.77864C 23.5 3.76343 23.5 3.74825 23.5 3.73308C 23.5 3.71792 23.5 3.70277 23.5 3.68764C 23.5 3.67252 23.5 3.65741 23.5 3.64232C 23.5 3.62722 23.5 3.61215 23.5 3.5971C 23.5 3.58205 23.5 3.56701 23.5 3.552C 23.5 3.53699 23.5 3.52199 23.5 3.50701C 23.5 3.49204 23.5 3.47708 23.5 3.46214C 23.5 3.44721 23.5 3.43229 23.5 3.41739C 23.5 3.40249 23.5 3.38761 23.5 3.37275C 23.5 3.35789 23.5 3.34305 23.5 3.32823C 23.5 3.31341 23.5 3.2986 23.5 3.28382C 23.5 3.26904 23.5 3.25428 23.5 3.23954C 23.5 3.22479 23.5 3.21007 23.5 3.19537C 23.5 3.18067 23.5 3.16598 23.5 3.15132C 23.5 3.13666 23.5 3.12201 23.5 3.10739C 23.5 3.09277 23.5 3.07817 23.5 3.06358C 23.5 3.049 23.5 3.03444 23.5 3.0199C 23.5 3.00535 23.5 2.99083 23.5 2.97633C 23.5 2.96183 23.5 2.94735 23.5 2.93289C 23.5 2.91843 23.5 2.90399 23.5 2.88957C 23.5 2.87515 23.5 2.86075 23.5 2.84637C 23.5 2.83199 23.5 2.81763 23.5 2.80329C 23.5 2.78896 23.5 2.77464 23.5 2.76034C 23.5 2.74605 23.5 2.73177 23.5 2.71752C 23.5 2.70327 23.5 2.68903 23.5 2.67482C 23.5 2.66061 23.5 2.64642 23.5 2.63225C 23.5 2.61808 23.5 2.60393 23.5 2.5898C 23.5 2.57567 23.5 2.56157 23.5 2.54748C 23.5 2.5334 23.5 2.51933 23.5 2.50529C 23.5 2.49125 23.5 2.47723 23.5 2.46323C 23.5 2.44923 23.5 2.43525 23.5 2.4213C 23.5 2.40734 23.5 2.39341 23.5 2.37949C 23.5 2.36558 23.5 2.35169 23.5 2.33782C 23.5 2.32395 23.5 2.3101 23.5 2.29628C 23.5 2.28245 23.5 2.26865 23.5 2.25486C 23.5 2.24108 23.5 2.22732 23.5 2.21358C 23.5 2.19985 23.5 2.18613 23.5 2.17244C 23.5 2.15874 23.5 2.14507 23.5 2.13142C 23.5 2.11777 23.5 2.10415 23.5 2.09054C 23.5 2.07694 23.5 2.06336 23.5 2.0498C 23.5 2.03624 23.5 2.0227 23.5 2.00918C 23.5 1.99567 23.5 1.98218 23.5 1.96871C 23.5 1.95524 23.5 1.94179 23.5 1.92837C 23.5 1.91494 23.5 1.90154 23.5 1.88816C 23.5 1.87479 23.5 1.86143 23.5 1.8481C 23.5 1.83477 23.5 1.82146 23.5 1.80817C 23.5 1.79488 23.5 1.78162 23.5 1.76838C 23.5 1.75514 23.5 1.74192 23.5 1.72873C 23.5 1.71553 23.5 1.70236 23.5 1.68921C 23.5 1.67607 23.5 1.66294 23.5 1.64984C 23.5 1.63674 23.5 1.62366 23.5 1.61061C 23.5 1.59756 23.5 1.58453 23.5 1.57152C 23.5 1.55851 23.5 1.54553 23.5 1.53257C 23.5 1.51961 23.5 1.50667 23.5 1.49376C 23.5 1.48085 23.5 1.46796 23.5 1.4551C 23.5 1.44223 23.5 1.42939 23.5 1.41658C 23.5 1.40376 23.5 1.39097 23.5 1.3782C 23.5 1.36543 23.5 1.35269 23.5 1.33997C 23.5 1.32725 23.5 1.31455 23.5 1.30188C 23.5 1.28921 23.5 1.27656 23.5 1.26394C 23.5 1.25132 23.5 1.23872 23.5 1.22615C 23.5 1.21357 23.5 1.20102 23.5 1.1885C 23.5 1.17598 23.5 1.16348 23.5 1.151C 23.5 1.13852 23.5 1.12607 23.5 1.11365C 23.5 1.10122 23.5 1.08882 23.5 1.07644C 23.5 1.06407 23.5 1.05172 23.5 1.03939C 23.5 1.02706 23.5 1.01476 23.5 1.00248C 23.5 0.990208 23.5 0.977957 23.5 0.965731C 23.5 0.953504 23.5 0.941303 23.5 0.929127C 23.5 0.916952 23.5 0.904801 23.5 0.892676C 23.5 0.88055 23.5 0.86845 23.5 0.856376C 23.5 0.844302 23.5 0.832252 23.5 0.820229C 23.5 0.808205 23.5 0.796207 23.5 0.784235C 23.5 0.772263 23.5 0.760316 23.5 0.748395C 23.5 0.736474 23.5 0.724579 23.5 0.71271C 23.5 0.70084 23.5 0.688997 23.5 0.677179C 23.5 0.665361 23.5 0.65357 23.5 0.641804C 23.5 0.630038 23.5 0.618299 23.5 0.606585C 23.5 0.594872 23.5 0.583184 23.5 0.571523C 23.5 0.559862 23.5 0.548227 23.5 0.536618C 23.5 0.525009 23.5 0.513427 23.5 0.501871C 23.5 0.490315 23.5 0.478785 23.5 0.467282C 23.5 0.455779 23.5 0.444303 23.5 0.432853C 23.5 0.421403 23.5 0.409979 23.5 0.398583C 23.5 0.387186 23.5 0.375816 23.5 0.364473C 23.5 0.35313 23.5 0.341813 23.5 0.330524C 23.5 0.319234 23.5 0.307972 23.5 0.296736C 23.5 0.2855 23.5 0.274292 23.5 0.26311C 23.5 0.251928 23.5 0.240774 23.5 0.229647C 23.5 0.218519 23.5 0.207419 23.5 0.196346C 23.5 0.185273 23.5 0.174228 23.5 0.163209C 23.5 0.152191 23.5 0.1412 23.5 0.130237C 23.5 0.119273 23.5 0.108337 23.5 0.097429C 23.5 0.0865206 23.5 0.0756397 23.5 0.0647865C 23.5 0.0539333 23.5 0.0431078 23.5 0.03231C 23.5 0.0215122 23.5 0.0107422 23.5 0L 20.5 0C 20.5 0.0107422 20.5 0.0215122 20.5 0.03231C 20.5 0.0431078 20.5 0.0539333 20.5 0.0647865C 20.5 0.0756397 20.5 0.0865206 20.5 0.097429C 20.5 0.108337 20.5 0.119273 20.5 0.130237C 20.5 0.1412 20.5 0.152191 20.5 0.163209C 20.5 0.174228 20.5 0.185273 20.5 0.196346C 20.5 0.207419 20.5 0.218519 20.5 0.229647C 20.5 0.240774 20.5 0.251928 20.5 0.26311C 20.5 0.274292 20.5 0.2855 20.5 0.296736C 20.5 0.307972 20.5 0.319234 20.5 0.330524C 20.5 0.341813 20.5 0.35313 20.5 0.364473C 20.5 0.375816 20.5 0.387186 20.5 0.398583C 20.5 0.409979 20.5 0.421403 20.5 0.432853C 20.5 0.444303 20.5 0.455779 20.5 0.467282C 20.5 0.478785 20.5 0.490315 20.5 0.501871C 20.5 0.513427 20.5 0.525009 20.5 0.536618C 20.5 0.548227 20.5 0.559862 20.5 0.571523C 20.5 0.583184 20.5 0.594872 20.5 0.606585C 20.5 0.618299 20.5 0.630038 20.5 0.641804C 20.5 0.65357 20.5 0.665361 20.5 0.677179C 20.5 0.688997 20.5 0.70084 20.5 0.71271C 20.5 0.724579 20.5 0.736474 20.5 0.748395C 20.5 0.760316 20.5 0.772263 20.5 0.784235C 20.5 0.796207 20.5 0.808205 20.5 0.820229C 20.5 0.832252 20.5 0.844302 20.5 0.856376C 20.5 0.86845 20.5 0.88055 20.5 0.892676C 20.5 0.904801 20.5 0.916952 20.5 0.929127C 20.5 0.941303 20.5 0.953504 20.5 0.965731C 20.5 0.977957 20.5 0.990208 20.5 1.00248C 20.5 1.01476 20.5 1.02706 20.5 1.03939C 20.5 1.05172 20.5 1.06407 20.5 1.07644C 20.5 1.08882 20.5 1.10122 20.5 1.11365C 20.5 1.12607 20.5 1.13852 20.5 1.151C 20.5 1.16348 20.5 1.17598 20.5 1.1885C 20.5 1.20102 20.5 1.21357 20.5 1.22615C 20.5 1.23872 20.5 1.25132 20.5 1.26394C 20.5 1.27656 20.5 1.28921 20.5 1.30188C 20.5 1.31455 20.5 1.32725 20.5 1.33997C 20.5 1.35269 20.5 1.36543 20.5 1.3782C 20.5 1.39097 20.5 1.40376 20.5 1.41658C 20.5 1.42939 20.5 1.44223 20.5 1.4551C 20.5 1.46796 20.5 1.48085 20.5 1.49376C 20.5 1.50667 20.5 1.51961 20.5 1.53257C 20.5 1.54553 20.5 1.55851 20.5 1.57152C 20.5 1.58453 20.5 1.59756 20.5 1.61061C 20.5 1.62366 20.5 1.63674 20.5 1.64984C 20.5 1.66294 20.5 1.67607 20.5 1.68921C 20.5 1.70236 20.5 1.71553 20.5 1.72873C 20.5 1.74192 20.5 1.75514 20.5 1.76838C 20.5 1.78162 20.5 1.79488 20.5 1.80817C 20.5 1.82146 20.5 1.83477 20.5 1.8481C 20.5 1.86143 20.5 1.87479 20.5 1.88816C 20.5 1.90154 20.5 1.91494 20.5 1.92837C 20.5 1.94179 20.5 1.95524 20.5 1.96871C 20.5 1.98218 20.5 1.99567 20.5 2.00918C 20.5 2.0227 20.5 2.03624 20.5 2.0498C 20.5 2.06336 20.5 2.07694 20.5 2.09054C 20.5 2.10415 20.5 2.11777 20.5 2.13142C 20.5 2.14507 20.5 2.15874 20.5 2.17244C 20.5 2.18613 20.5 2.19985 20.5 2.21358C 20.5 2.22732 20.5 2.24108 20.5 2.25486C 20.5 2.26865 20.5 2.28245 20.5 2.29628C 20.5 2.3101 20.5 2.32395 20.5 2.33782C 20.5 2.35169 20.5 2.36558 20.5 2.37949C 20.5 2.39341 20.5 2.40734 20.5 2.4213C 20.5 2.43525 20.5 2.44923 20.5 2.46323C 20.5 2.47723 20.5 2.49125 20.5 2.50529C 20.5 2.51933 20.5 2.5334 20.5 2.54748C 20.5 2.56157 20.5 2.57567 20.5 2.5898C 20.5 2.60393 20.5 2.61808 20.5 2.63225C 20.5 2.64642 20.5 2.66061 20.5 2.67482C 20.5 2.68903 20.5 2.70327 20.5 2.71752C 20.5 2.73177 20.5 2.74605 20.5 2.76034C 20.5 2.77464 20.5 2.78896 20.5 2.80329C 20.5 2.81763 20.5 2.83199 20.5 2.84637C 20.5 2.86075 20.5 2.87515 20.5 2.88957C 20.5 2.90399 20.5 2.91843 20.5 2.93289C 20.5 2.94735 20.5 2.96183 20.5 2.97633C 20.5 2.99083 20.5 3.00535 20.5 3.0199C 20.5 3.03444 20.5 3.049 20.5 3.06358C 20.5 3.07817 20.5 3.09277 20.5 3.10739C 20.5 3.12201 20.5 3.13666 20.5 3.15132C 20.5 3.16598 20.5 3.18067 20.5 3.19537C 20.5 3.21007 20.5 3.22479 20.5 3.23954C 20.5 3.25428 20.5 3.26904 20.5 3.28382C 20.5 3.2986 20.5 3.31341 20.5 3.32823C 20.5 3.34305 20.5 3.35789 20.5 3.37275C 20.5 3.38761 20.5 3.40249 20.5 3.41739C 20.5 3.43229 20.5 3.44721 20.5 3.46214C 20.5 3.47708 20.5 3.49204 20.5 3.50701C 20.5 3.52199 20.5 3.53699 20.5 3.552C 20.5 3.56701 20.5 3.58205 20.5 3.5971C 20.5 3.61215 20.5 3.62722 20.5 3.64232C 20.5 3.65741 20.5 3.67252 20.5 3.68764C 20.5 3.70277 20.5 3.71792 20.5 3.73308C 20.5 3.74825 20.5 3.76343 20.5 3.77864C 20.5 3.79384 20.5 3.80906 20.5 3.8243C 20.5 3.83954 20.5 3.8548 20.5 3.87008C 20.5 3.88536 20.5 3.90065 20.5 3.91597C 20.5 3.93128 20.5 3.94661 20.5 3.96196C 20.5 3.97731 20.5 3.99268 20.5 4.00807C 20.5 4.02346 20.5 4.03886 20.5 4.05428C 20.5 4.06971 20.5 4.08515 20.5 4.10061C 20.5 4.11607 20.5 4.13154 20.5 4.14704C 20.5 4.16253 20.5 4.17805 20.5 4.19358C 20.5 4.20911 20.5 4.22465 20.5 4.24022C 20.5 4.25579 20.5 4.27137 20.5 4.28697C 20.5 4.30257 20.5 4.31819 20.5 4.33383C 20.5 4.34946 20.5 4.36512 20.5 4.38079C 20.5 4.39646 20.5 4.41215 20.5 4.42785C 20.5 4.44356 20.5 4.45928 20.5 4.47502C 20.5 4.49076 20.5 4.50652 20.5 4.52229C 20.5 4.53807 20.5 4.55386 20.5 4.56967C 20.5 4.58548 20.5 4.6013 20.5 4.61714C 20.5 4.63299 20.5 4.64884 20.5 4.66472C 20.5 4.6806 20.5 4.69649 20.5 4.7124C 20.5 4.72831 20.5 4.74423 20.5 4.76018C 20.5 4.77612 20.5 4.79208 20.5 4.80806C 20.5 4.82403 20.5 4.84002 20.5 4.85603C 20.5 4.87204 20.5 4.88807 20.5 4.90411C 20.5 4.92015 20.5 4.93621 20.5 4.95228C 20.5 4.96836 20.5 4.98445 20.5 5.00055C 20.5 5.01666 20.5 5.03278 20.5 5.04892C 20.5 5.06506 20.5 5.08121 20.5 5.09738C 20.5 5.11355 20.5 5.12974 20.5 5.14594C 20.5 5.16214 20.5 5.17836 20.5 5.1946C 20.5 5.21083 20.5 5.22708 20.5 5.24335C 20.5 5.25961 20.5 5.27589 20.5 5.29219C 20.5 5.30848 20.5 5.3248 20.5 5.34112C 20.5 5.35745 20.5 5.37379 20.5 5.39015C 20.5 5.40651 20.5 5.42288 20.5 5.43927C 20.5 5.45566 20.5 5.47206 20.5 5.48848C 20.5 5.5049 20.5 5.52134 20.5 5.53779C 20.5 5.55424 20.5 5.5707 20.5 5.58718C 20.5 5.60366 20.5 5.62015 20.5 5.63666C 20.5 5.65317 20.5 5.6697 20.5 5.68624C 20.5 5.70278 20.5 5.71933 20.5 5.7359C 20.5 5.75247 20.5 5.76905 20.5 5.78565C 20.5 5.80224 20.5 5.81886 20.5 5.83548C 20.5 5.85211 20.5 5.86875 20.5 5.88541C 20.5 5.90206 20.5 5.91873 20.5 5.93542C 20.5 5.9521 20.5 5.9688 20.5 5.98551C 20.5 6.00223 20.5 6.01895 20.5 6.03569C 20.5 6.05243 20.5 6.06919 20.5 6.08596C 20.5 6.10273 20.5 6.11951 20.5 6.13631C 20.5 6.15311 20.5 6.16992 20.5 6.18674C 20.5 6.20357 20.5 6.22041 20.5 6.23726C 20.5 6.25411 20.5 6.27098 20.5 6.28786C 20.5 6.30474 20.5 6.32163 20.5 6.33854C 20.5 6.35544 20.5 6.37236 20.5 6.3893C 20.5 6.40623 20.5 6.42318 20.5 6.44014C 20.5 6.4571 20.5 6.47407 20.5 6.49106C 20.5 6.50805 20.5 6.52505 20.5 6.54206C 20.5 6.55907 20.5 6.5761 20.5 6.59314C 20.5 6.61018 20.5 6.62723 20.5 6.6443C 20.5 6.66137 20.5 6.67844 20.5 6.69554C 20.5 6.71263 20.5 6.72973 20.5 6.74685C 20.5 6.76397 20.5 6.7811 20.5 6.79824C 20.5 6.81538 20.5 6.83254 20.5 6.8497C 20.5 6.86687 20.5 6.88405 20.5 6.90125C 20.5 6.91844 20.5 6.93564 20.5 6.95286C 20.5 6.97008 20.5 6.98731 20.5 7.00455C 20.5 7.02179 20.5 7.03905 20.5 7.05631C 20.5 7.07358 20.5 7.09086 20.5 7.10815C 20.5 7.12544 20.5 7.14275 20.5 7.16006C 20.5 7.17738 20.5 7.1947 20.5 7.21204C 20.5 7.22938 20.5 7.24673 20.5 7.26409C 20.5 7.28146 20.5 7.29883 20.5 7.31622C 20.5 7.3336 20.5 7.351 20.5 7.36841C 20.5 7.38582 20.5 7.40324 20.5 7.42068C 20.5 7.43811 20.5 7.45555 20.5 7.47301C 20.5 7.49046 20.5 7.50793 20.5 7.52541C 20.5 7.54289 20.5 7.56038 20.5 7.57788C 20.5 7.59538 20.5 7.61289 20.5 7.63041C 20.5 7.64794 20.5 7.66547 20.5 7.68302C 20.5 7.70056 20.5 7.71812 20.5 7.73568C 20.5 7.75325 20.5 7.77083 20.5 7.78842C 20.5 7.80601 20.5 7.82361 20.5 7.84122C 20.5 7.85883 20.5 7.87645 20.5 7.89408C 20.5 7.91171 20.5 7.92936 20.5 7.94701C 20.5 7.96466 20.5 7.98233 20.5 8C 20.5 8.01768 20.5 8.03536 20.5 8.05305C 20.5 8.07075 20.5 8.08846 20.5 8.10617C 20.5 8.12389 20.5 8.14161 20.5 8.15935C 20.5 8.17708 20.5 8.19483 20.5 8.21259C 20.5 8.23034 20.5 8.24811 20.5 8.26589C 20.5 8.28366 20.5 8.30145 20.5 8.31924C 20.5 8.33704 20.5 8.35485 20.5 8.37266C 20.5 8.39048 20.5 8.4083 20.5 8.42614C 20.5 8.44397 20.5 8.46182 20.5 8.47967C 20.5 8.49753 20.5 8.51539 20.5 8.53327C 20.5 8.55114 20.5 8.56902 20.5 8.58691C 20.5 8.60481 20.5 8.62271 20.5 8.64062C 20.5 8.65853 20.5 8.67645 20.5 8.69438C 20.5 8.71231 20.5 8.73025 20.5 8.7482C 20.5 8.76614 20.5 8.7841 20.5 8.80207C 20.5 8.82003 20.5 8.83801 20.5 8.85599C 20.5 8.87398 20.5 8.89197 20.5 8.90997C 20.5 8.92797 20.5 8.94598 20.5 8.964C 20.5 8.98202 20.5 9.00005 20.5 9.01809C 20.5 9.03612 20.5 9.05417 20.5 9.07222C 20.5 9.09028 20.5 9.10834 20.5 9.12641C 20.5 9.14448 20.5 9.16256 20.5 9.18065C 20.5 9.19873 20.5 9.21683 20.5 9.23493C 20.5 9.25304 20.5 9.27115 20.5 9.28927C 20.5 9.30739 20.5 9.32552 20.5 9.34366C 20.5 9.36179 20.5 9.37994 20.5 9.39809C 20.5 9.41624 20.5 9.4344 20.5 9.45257C 20.5 9.47074 20.5 9.48892 20.5 9.5071C 20.5 9.52529 20.5 9.54348 20.5 9.56168C 20.5 9.57988 20.5 9.59808 20.5 9.6163C 20.5 9.63451 20.5 9.65274 20.5 9.67097C 20.5 9.68919 20.5 9.70743 20.5 9.72568C 20.5 9.74392 20.5 9.76217 20.5 9.78043C 20.5 9.79869 20.5 9.81696 20.5 9.83523C 20.5 9.85351 20.5 9.87179 20.5 9.89007C 20.5 9.90836 20.5 9.92666 20.5 9.94496C 20.5 9.96326 20.5 9.98157 20.5 9.99989C 20.5 10.0182 20.5 10.0365 20.5 10.0549C 20.5 10.0732 20.5 10.0915 20.5 10.1099C 20.5 10.1282 20.5 10.1466 20.5 10.1649C 20.5 10.1833 20.5 10.2016 20.5 10.22C 20.5 10.2384 20.5 10.2567 20.5 10.2751C 20.5 10.2935 20.5 10.3119 20.5 10.3303C 20.5 10.3487 20.5 10.3671 20.5 10.3855C 20.5 10.4039 20.5 10.4223 20.5 10.4407C 20.5 10.4592 20.5 10.4776 20.5 10.496C 20.5 10.5145 20.5 10.5329 20.5 10.5513C 20.5 10.5698 20.5 10.5882 20.5 10.6067C 20.5 10.6251 20.5 10.6436 20.5 10.6621C 20.5 10.6805 20.5 10.699 20.5 10.7175C 20.5 10.736 20.5 10.7545 20.5 10.7729C 20.5 10.7914 20.5 10.8099 20.5 10.8284C 20.5 10.8469 20.5 10.8654 20.5 10.884C 20.5 10.9025 20.5 10.921 20.5 10.9395C 20.5 10.958 20.5 10.9766 20.5 10.9951C 20.5 11.0136 20.5 11.0322 20.5 11.0507C 20.5 11.0692 20.5 11.0878 20.5 11.1063C 20.5 11.1249 20.5 11.1435 20.5 11.162C 20.5 11.1806 20.5 11.1992 20.5 11.2177C 20.5 11.2363 20.5 11.2549 20.5 11.2735C 20.5 11.292 20.5 11.3106 20.5 11.3292C 20.5 11.3478 20.5 11.3664 20.5 11.385C 20.5 11.4036 20.5 11.4222 20.5 11.4408C 20.5 11.4594 20.5 11.478 20.5 11.4967C 20.5 11.5153 20.5 11.5339 20.5 11.5525C 20.5 11.5712 20.5 11.5898 20.5 11.6084C 20.5 11.6271 20.5 11.6457 20.5 11.6643C 20.5 11.683 20.5 11.7016 20.5 11.7203C 20.5 11.7389 20.5 11.7576 20.5 11.7762C 20.5 11.7949 20.5 11.8136 20.5 11.8322C 20.5 11.8509 20.5 11.8696 20.5 11.8882C 20.5 11.9069 20.5 11.9256 20.5 11.9443C 20.5 11.963 20.5 11.9816 20.5 12.0003C 20.5 12.019 20.5 12.0377 20.5 12.0564C 20.5 12.0751 20.5 12.0938 20.5 12.1125C 20.5 12.1312 20.5 12.1499 20.5 12.1686C 20.5 12.1873 20.5 12.206 20.5 12.2247C 20.5 12.2435 20.5 12.2622 20.5 12.2809C 20.5 12.2996 20.5 12.3183 20.5 12.3371C 20.5 12.3558 20.5 12.3745 20.5 12.3932C 20.5 12.412 20.5 12.4307 20.5 12.4495C 20.5 12.4682 20.5 12.4869 20.5 12.5057C 20.5 12.5244 20.5 12.5432 20.5 12.5619C 20.5 12.5806 20.5 12.5994 20.5 12.6181C 20.5 12.6369 20.5 12.6557 20.5 12.6744C 20.5 12.6932 20.5 12.7119 20.5 12.7307C 20.5 12.7494 20.5 12.7682 20.5 12.787C 20.5 12.8057 20.5 12.8245 20.5 12.8433C 20.5 12.862 20.5 12.8808 20.5 12.8996C 20.5 12.9184 20.5 12.9371 20.5 12.9559C 20.5 12.9747 20.5 12.9935 20.5 13.0123C 20.5 13.031 20.5 13.0498 20.5 13.0686C 20.5 13.0874 20.5 13.1062 20.5 13.125C 20.5 13.1437 20.5 13.1625 20.5 13.1813C 20.5 13.2001 20.5 13.2189 20.5 13.2377C 20.5 13.2565 20.5 13.2753 20.5 13.2941C 20.5 13.3129 20.5 13.3317 20.5 13.3505C 20.5 13.3693 20.5 13.3881 20.5 13.4069C 20.5 13.4257 20.5 13.4445 20.5 13.4633C 20.5 13.4821 20.5 13.5009 20.5 13.5197C 20.5 13.5385 20.5 13.5573 20.5 13.5761C 20.5 13.5949 20.5 13.6137 20.5 13.6325C 20.5 13.6513 20.5 13.6701 20.5 13.6889C 20.5 13.7077 20.5 13.7265 20.5 13.7453C 20.5 13.7641 20.5 13.783 20.5 13.8018C 20.5 13.8206 20.5 13.8394 20.5 13.8582C 20.5 13.877 20.5 13.8958 20.5 13.9146C 20.5 13.9334 20.5 13.9522 20.5 13.9711C 20.5 13.9899 20.5 14.0087 20.5 14.0275C 20.5 14.0463 20.5 14.0651 20.5 14.0839C 20.5 14.1027 20.5 14.1215 20.5 14.1403C 20.5 14.1592 20.5 14.178 20.5 14.1968C 20.5 14.2156 20.5 14.2344 20.5 14.2532C 20.5 14.272 20.5 14.2908 20.5 14.3096C 20.5 14.3284 20.5 14.3472 20.5 14.3661C 20.5 14.3849 20.5 14.4037 20.5 14.4225C 20.5 14.4413 20.5 14.4601 20.5 14.4789C 20.5 14.4977 20.5 14.5165 20.5 14.5353C 20.5 14.5541 20.5 14.5729 20.5 14.5917C 20.5 14.6105 20.5 14.6293 20.5 14.6481C 20.5 14.6669 20.5 14.6857 20.5 14.7045C 20.5 14.7233 20.5 14.7421 20.5 14.7609C 20.5 14.7797 20.5 14.7985 20.5 14.8173C 20.5 14.836 20.5 14.8548 20.5 14.8736C 20.5 14.8924 20.5 14.9112 20.5 14.93C 20.5 14.9488 20.5 14.9675 20.5 14.9863C 20.5 15.0051 20.5 15.0239 20.5 15.0427C 20.5 15.0615 20.5 15.0802 20.5 15.099C 20.5 15.1178 20.5 15.1365 20.5 15.1553C 20.5 15.1741 20.5 15.1929 20.5 15.2116C 20.5 15.2304 20.5 15.2492 20.5 15.2679C 20.5 15.2867 20.5 15.3054 20.5 15.3242C 20.5 15.343 20.5 15.3617 20.5 15.3805C 20.5 15.3992 20.5 15.418 20.5 15.4367C 20.5 15.4555 20.5 15.4742 20.5 15.493C 20.5 15.5117 20.5 15.5305 20.5 15.5492C 20.5 15.5679 20.5 15.5867 20.5 15.6054C 20.5 15.6241 20.5 15.6429 20.5 15.6616C 20.5 15.6803 20.5 15.6991 20.5 15.7178C 20.5 15.7365 20.5 15.7552 20.5 15.7739C 20.5 15.7926 20.5 15.8114 20.5 15.8301C 20.5 15.8488 20.5 15.8675 20.5 15.8862C 20.5 15.9049 20.5 15.9236 20.5 15.9423C 20.5 15.961 20.5 15.9797 20.5 15.9984C 20.5 16.0171 20.5 16.0358 20.5 16.0544C 20.5 16.0731 20.5 16.0918 20.5 16.1105C 20.5 16.1292 20.5 16.1478 20.5 16.1665C 20.5 16.1852 20.5 16.2038 20.5 16.2225C 20.5 16.2412 20.5 16.2598 20.5 16.2785C 20.5 16.2971 20.5 16.3158 20.5 16.3344C 20.5 16.3531 20.5 16.3717 20.5 16.3904C 20.5 16.409 20.5 16.4276 20.5 16.4463C 20.5 16.4649 20.5 16.4835 20.5 16.5021C 20.5 16.5208 20.5 16.5394 20.5 16.558C 20.5 16.5766 20.5 16.5952 20.5 16.6138C 20.5 16.6324 20.5 16.651 20.5 16.6696C 20.5 16.6882 20.5 16.7068 20.5 16.7254C 20.5 16.744 20.5 16.7626 20.5 16.7811C 20.5 16.7997 20.5 16.8183 20.5 16.8369C 20.5 16.8554 20.5 16.874 20.5 16.8926C 20.5 16.9111 20.5 16.9297 20.5 16.9482C 20.5 16.9668 20.5 16.9853 20.5 17.0038C 20.5 17.0224 20.5 17.0409 20.5 17.0594C 20.5 17.078 20.5 17.0965 20.5 17.115C 20.5 17.1335 20.5 17.152 20.5 17.1705C 20.5 17.189 20.5 17.2076 20.5 17.226C 20.5 17.2445 20.5 17.263 20.5 17.2815C 20.5 17.3 20.5 17.3185 20.5 17.337C 20.5 17.3554 20.5 17.3739 20.5 17.3924C 20.5 17.4108 20.5 17.4293 20.5 17.4477C 20.5 17.4662 20.5 17.4846 20.5 17.5031C 20.5 17.5215 20.5 17.5399 20.5 17.5583C 20.5 17.5768 20.5 17.5952 20.5 17.6136C 20.5 17.632 20.5 17.6504 20.5 17.6688C 20.5 17.6872 20.5 17.7056 20.5 17.724C 20.5 17.7424 20.5 17.7608 20.5 17.7792C 20.5 17.7975 20.5 17.8159 20.5 17.8343C 20.5 17.8526 20.5 17.871 20.5 17.8893C 20.5 17.9077 20.5 17.926 20.5 17.9444C 20.5 17.9627 20.5 17.981 20.5 17.9994C 20.5 18.0177 20.5 18.036 20.5 18.0543C 20.5 18.0726 20.5 18.0909 20.5 18.1092C 20.5 18.1275 20.5 18.1458 20.5 18.1641C 20.5 18.1823 20.5 18.2006 20.5 18.2189C 20.5 18.2372 20.5 18.2554 20.5 18.2737C 20.5 18.2919 20.5 18.3102 20.5 18.3284C 20.5 18.3466 20.5 18.3649 20.5 18.3831C 20.5 18.4013 20.5 18.4195 20.5 18.4377C 20.5 18.4559 20.5 18.4741 20.5 18.4923C 20.5 18.5105 20.5 18.5287 20.5 18.5469C 20.5 18.5651 20.5 18.5832 20.5 18.6014C 20.5 18.6195 20.5 18.6377 20.5 18.6558C 20.5 18.674 20.5 18.6921 20.5 18.7102C 20.5 18.7284 20.5 18.7465 20.5 18.7646C 20.5 18.7827 20.5 18.8008 20.5 18.8189C 20.5 18.837 20.5 18.8551 20.5 18.8732C 20.5 18.8913 20.5 18.9093 20.5 18.9274C 20.5 18.9454 20.5 18.9635 20.5 18.9815C 20.5 18.9996 20.5 19.0176 20.5 19.0357C 20.5 19.0537 20.5 19.0717 20.5 19.0897C 20.5 19.1077 20.5 19.1257 20.5 19.1437C 20.5 19.1617 20.5 19.1797 20.5 19.1977C 20.5 19.2156 20.5 19.2336 20.5 19.2516C 20.5 19.2695 20.5 19.2875 20.5 19.3054C 20.5 19.3233 20.5 19.3413 20.5 19.3592C 20.5 19.3771 20.5 19.395 20.5 19.4129C 20.5 19.4308 20.5 19.4487 20.5 19.4666C 20.5 19.4845 20.5 19.5024 20.5 19.5202C 20.5 19.5381 20.5 19.5559 20.5 19.5738C 20.5 19.5916 20.5 19.6095 20.5 19.6273C 20.5 19.6451 20.5 19.6629 20.5 19.6807C 20.5 19.6985 20.5 19.7163 20.5 19.7341C 20.5 19.7519 20.5 19.7697 20.5 19.7874C 20.5 19.8052 20.5 19.823 20.5 19.8407C 20.5 19.8585 20.5 19.8762 20.5 19.8939C 20.5 19.9116 20.5 19.9294 20.5 19.9471C 20.5 19.9648 20.5 19.9825 20.5 20.0001C 20.5 20.0178 20.5 20.0355 20.5 20.0532C 20.5 20.0708 20.5 20.0885 20.5 20.1061C 20.5 20.1238 20.5 20.1414 20.5 20.159C 20.5 20.1766 20.5 20.1943 20.5 20.2118C 20.5 20.2294 20.5 20.247 20.5 20.2646C 20.5 20.2822 20.5 20.2998 20.5 20.3173C 20.5 20.3349 20.5 20.3524 20.5 20.3699C 20.5 20.3875 20.5 20.405 20.5 20.4225C 20.5 20.44 20.5 20.4575 20.5 20.475C 20.5 20.4925 20.5 20.51 20.5 20.5274C 20.5 20.5449 20.5 20.5624 20.5 20.5798C 20.5 20.5973 20.5 20.6147 20.5 20.6321C 20.5 20.6495 20.5 20.6669 20.5 20.6843C 20.5 20.7017 20.5 20.7191 20.5 20.7365C 20.5 20.7539 20.5 20.7712 20.5 20.7886C 20.5 20.8059 20.5 20.8233 20.5 20.8406C 20.5 20.8579 20.5 20.8752 20.5 20.8925C 20.5 20.9098 20.5 20.9271 20.5 20.9444C 20.5 20.9617 20.5 20.979 20.5 20.9962C 20.5 21.0135 20.5 21.0307 20.5 21.0479C 20.5 21.0652 20.5 21.0824 20.5 21.0996C 20.5 21.1168 20.5 21.134 20.5 21.1512C 20.5 21.1683 20.5 21.1855 20.5 21.2027C 20.5 21.2198 20.5 21.237 20.5 21.2541C 20.5 21.2712 20.5 21.2883 20.5 21.3054C 20.5 21.3225 20.5 21.3396 20.5 21.3567C 20.5 21.3738 20.5 21.3909 20.5 21.4079C 20.5 21.425 20.5 21.442 20.5 21.459C 20.5 21.476 20.5 21.4931 20.5 21.5101C 20.5 21.5271 20.5 21.544 20.5 21.561C 20.5 21.578 20.5 21.595 20.5 21.6119C 20.5 21.6288 20.5 21.6458 20.5 21.6627C 20.5 21.6796 20.5 21.6965 20.5 21.7134C 20.5 21.7303 20.5 21.7472 20.5 21.7641C 20.5 21.7809 20.5 21.7978 20.5 21.8146C 20.5 21.8314 20.5 21.8483 20.5 21.8651C 20.5 21.8819 20.5 21.8987 20.5 21.9155C 20.5 21.9323 20.5 21.949 20.5 21.9658C 20.5 21.9825 20.5 21.9993 20.5 22.016C 20.5 22.0327 20.5 22.0494 20.5 22.0661C 20.5 22.0828 20.5 22.0995 20.5 22.1162C 20.5 22.1329 20.5 22.1495 20.5 22.1661C 20.5 22.1828 20.5 22.1994 20.5 22.216C 20.5 22.2326 20.5 22.2492 20.5 22.2658C 20.5 22.2824 20.5 22.299 20.5 22.3155C 20.5 22.3321 20.5 22.3486 20.5 22.3651C 20.5 22.3817 20.5 22.3982 20.5 22.4147C 20.5 22.4312 20.5 22.4476 20.5 22.4641C 20.5 22.4806 20.5 22.497 20.5 22.5134C 20.5 22.5299 20.5 22.5463 20.5 22.5627C 20.5 22.5791 20.5 22.5955 20.5 22.6119C 20.5 22.6282 20.5 22.6446 20.5 22.6609C 20.5 22.6773 20.5 22.6936 20.5 22.7099C 20.5 22.7262 20.5 22.7425 20.5 22.7588C 20.5 22.7751 20.5 22.7913 20.5 22.8076C 20.5 22.8238 20.5 22.8401 20.5 22.8563C 20.5 22.8725 20.5 22.8887 20.5 22.9049C 20.5 22.9211 20.5 22.9372 20.5 22.9534C 20.5 22.9696 20.5 22.9857 20.5 23.0018C 20.5 23.0179 20.5 23.034 20.5 23.0501C 20.5 23.0662 20.5 23.0823 20.5 23.0984C 20.5 23.1144 20.5 23.1304 20.5 23.1465C 20.5 23.1625 20.5 23.1785 20.5 23.1945C 20.5 23.2105 20.5 23.2265 20.5 23.2424C 20.5 23.2584 20.5 23.2743 20.5 23.2902C 20.5 23.3062 20.5 23.3221 20.5 23.338C 20.5 23.3539 20.5 23.3697 20.5 23.3856C 20.5 23.4015 20.5 23.4173 20.5 23.4331C 20.5 23.4489 20.5 23.4648 20.5 23.4805C 20.5 23.4963 20.5 23.5121 20.5 23.5279C 20.5 23.5436 20.5 23.5594 20.5 23.5751C 20.5 23.5908 20.5 23.6065 20.5 23.6222C 20.5 23.6379 20.5 23.6536 20.5 23.6692C 20.5 23.6849 20.5 23.7005 20.5 23.7161C 20.5 23.7317 20.5 23.7473 20.5 23.7629C 20.5 23.7785 20.5 23.7941 20.5 23.8096C 20.5 23.8252 20.5 23.8407 20.5 23.8562C 20.5 23.8717 20.5 23.8872 20.5 23.9027C 20.5 23.9182 20.5 23.9336 20.5 23.9491C 20.5 23.9645 20.5 23.9799 20.5 23.9953C 20.5 24.0107 20.5 24.0261 20.5 24.0415C 20.5 24.0568 20.5 24.0722 20.5 24.0875C 20.5 24.1029 20.5 24.1182 20.5 24.1335C 20.5 24.1488 20.5 24.164 20.5 24.1793C 20.5 24.1945 20.5 24.2098 20.5 24.225C 20.5 24.2402 20.5 24.2554 20.5 24.2706C 20.5 24.2858 20.5 24.301 20.5 24.3161C 20.5 24.3313 20.5 24.3464 20.5 24.3615C 20.5 24.3766 20.5 24.3917 20.5 24.4068C 20.5 24.4218 20.5 24.4369 20.5 24.4519C 20.5 24.4669 20.5 24.482 20.5 24.497C 20.5 24.5119 20.5 24.5269 20.5 24.5419C 20.5 24.5568 20.5 24.5718 20.5 24.5867C 20.5 24.6016 20.5 24.6165 20.5 24.6314C 20.5 24.6463 20.5 24.6611 20.5 24.676C 20.5 24.6908 20.5 24.7056 20.5 24.7204C 20.5 24.7352 20.5 24.75 20.5 24.7648C 20.5 24.7795 20.5 24.7943 20.5 24.809C 20.5 24.8237 20.5 24.8384 20.5 24.8531C 20.5 24.8678 20.5 24.8824 20.5 24.8971C 20.5 24.9117 20.5 24.9263 20.5 24.9409C 20.5 24.9555 20.5 24.9701 20.5 24.9847C 20.5 24.9992 20.5 25.0138 20.5 25.0283C 20.5 25.0428 20.5 25.0573 20.5 25.0718C 20.5 25.0863 20.5 25.1008 20.5 25.1152C 20.5 25.1296 20.5 25.144 20.5 25.1584C 20.5 25.1728 20.5 25.1872 20.5 25.2016C 20.5 25.2159 20.5 25.2303 20.5 25.2446C 20.5 25.2589 20.5 25.2732 20.5 25.2875C 20.5 25.3017 20.5 25.316 20.5 25.3302C 20.5 25.3445 20.5 25.3587 20.5 25.3729C 20.5 25.3871 20.5 25.4012 20.5 25.4154C 20.5 25.4295 20.5 25.4436 20.5 25.4577C 20.5 25.4719 20.5 25.4859 20.5 25.5L 23.5 25.5ZM 22 -1.5L 16.5 -1.5L 16.5 1.5L 22 1.5L 22 -1.5ZM 15 0L 15 20.5L 18 20.5L 18 0L 15 0ZM 15 20.5C 15 20.494 15.0002 20.4915 15.0002 20.4921C 15.0001 20.4927 14.9999 20.4953 14.9993 20.4997C 14.998 20.5088 14.9957 20.5207 14.9921 20.5332C 14.9885 20.5457 14.9848 20.5551 14.9821 20.5609C 14.9795 20.5666 14.9791 20.5661 14.9827 20.561C 14.9866 20.5556 14.9947 20.5455 15.0081 20.5337C 15.0147 20.5279 15.022 20.5221 15.0299 20.5167C 15.0378 20.5113 15.0456 20.5066 15.0529 20.5029C 15.0602 20.4991 15.0661 20.4967 15.0701 20.4952C 15.074 20.4938 15.075 20.4937 15.0725 20.4943C 15.068 20.4953 15.0454 20.5 15 20.5L 15 23.5C 16.0889 23.5 16.9142 23.0127 17.4173 22.314C 17.8653 21.6917 18 20.99 18 20.5L 15 20.5ZM 15 20.5C 14.9546 20.5 14.932 20.4953 14.9275 20.4943C 14.925 20.4937 14.926 20.4938 14.9299 20.4952C 14.9339 20.4967 14.9398 20.4991 14.9471 20.5029C 14.9544 20.5066 14.9622 20.5113 14.9701 20.5167C 14.978 20.5221 14.9853 20.5279 14.9919 20.5337C 15.0053 20.5455 15.0134 20.5556 15.0173 20.561C 15.0209 20.5661 15.0205 20.5666 15.0179 20.5609C 15.0152 20.5551 15.0115 20.5457 15.0079 20.5332C 15.0043 20.5207 15.002 20.5088 15.0007 20.4997C 15.0001 20.4953 14.9999 20.4927 14.9998 20.4921C 14.9998 20.4915 15 20.494 15 20.5L 12 20.5C 12 20.99 12.1347 21.6917 12.5827 22.314C 13.0858 23.0127 13.9111 23.5 15 23.5L 15 20.5ZM 15 20.5L 15 0L 12 0L 12 20.5L 15 20.5ZM 13.5 -1.5L 8.5 -1.5L 8.5 1.5L 13.5 1.5L 13.5 -1.5ZM 7 0L 7 20.5L 10 20.5L 10 0L 7 0ZM 7 20.5C 7 20.494 7.00021 20.4915 7.00017 20.4921C 7.00012 20.4927 6.99991 20.4953 6.99931 20.4997C 6.99802 20.5088 6.99567 20.5207 6.99209 20.5332C 6.98852 20.5457 6.98482 20.5551 6.98211 20.5609C 6.97946 20.5666 6.97906 20.5661 6.9827 20.561C 6.98659 20.5556 6.99474 20.5455 7.00809 20.5337C 7.01468 20.5279 7.022 20.5221 7.0299 20.5167C 7.03783 20.5113 7.04563 20.5066 7.05293 20.5029C 7.06024 20.4991 7.06613 20.4967 7.07007 20.4952C 7.07399 20.4938 7.07503 20.4937 7.07254 20.4943C 7.06797 20.4953 7.04543 20.5 7 20.5L 7 23.5C 8.08888 23.5 8.91421 23.0127 9.4173 22.314C 9.86533 21.6917 10 20.99 10 20.5L 7 20.5ZM 7 20.5C 6.95457 20.5 6.93203 20.4953 6.92746 20.4943C 6.92497 20.4937 6.92601 20.4938 6.92993 20.4952C 6.93387 20.4967 6.93976 20.4991 6.94707 20.5029C 6.95437 20.5066 6.96217 20.5113 6.9701 20.5167C 6.978 20.5221 6.98532 20.5279 6.99191 20.5337C 7.00526 20.5455 7.01341 20.5556 7.0173 20.561C 7.02094 20.5661 7.02054 20.5666 7.01789 20.5609C 7.01518 20.5551 7.01148 20.5457 7.00791 20.5332C 7.00433 20.5207 7.00198 20.5088 7.00069 20.4997C 7.00009 20.4953 6.99988 20.4927 6.99983 20.4921C 6.99979 20.4915 7 20.494 7 20.5L 4 20.5C 4 20.99 4.13467 21.6917 4.5827 22.314C 5.08579 23.0127 5.91112 23.5 7 23.5L 7 20.5ZM 7 20.5L 7 0L 4 0L 4 20.5L 7 20.5ZM 5.5 -1.5L 0 -1.5L 0 1.5L 5.5 1.5L 5.5 -1.5ZM -1.5 0L -1.5 25.5L 1.5 25.5L 1.5 0L -1.5 0ZM -1.5 25.5C -1.49998 28.5013 0.0228795 35.4256 6.07331 40.1795L 7.92678 37.8205C 2.77721 33.7744 1.50001 27.8321 1.5 25.5L -1.5 25.5Z"/>
<path id="path1_stroke" d="M 14.0791 0L 15.5791 0C 15.5791 -0.616814 15.2015 -1.17075 14.6274 -1.39621C 14.0532 -1.62166 13.3996 -1.47267 12.9799 -1.02068L 14.0791 0ZM 14.0791 76L 12.5791 76C 12.5791 76.071 12.5841 76.1419 12.5942 76.2121L 14.0791 76ZM 7.57908 46.5L 9.07908 46.5C 9.07908 45.9444 8.77196 45.4343 8.28092 45.1743L 7.57908 46.5ZM 12.5791 0L 12.5791 76L 15.5791 76L 15.5791 0L 12.5791 0ZM 12.5942 76.2121C 12.6457 76.5726 12.5974 77.0826 12.3924 77.4377C 12.3028 77.593 12.1867 77.7154 12.0227 77.8067C 11.8558 77.8997 11.5675 78 11.0791 78L 11.0791 81C 12.9787 81 14.2843 80.1613 14.9907 78.9373C 15.6274 77.8341 15.6792 76.594 15.564 75.7879L 12.5942 76.2121ZM 11.0791 78C 10.168 78 9.74329 77.654 9.49638 77.311C 9.19441 76.8916 9.07908 76.3433 9.07908 76L 6.07908 76C 6.07908 76.8234 6.31376 78.025 7.06178 79.064C 7.86488 80.1794 9.1902 81 11.0791 81L 11.0791 78ZM 9.07908 76L 9.07908 46.5L 6.07908 46.5L 6.07908 76L 9.07908 76ZM 8.28092 45.1743C 6.00634 43.9701 0.814831 38.753 1.57527 28.1069L -1.4171 27.8931C -2.25666 39.647 3.48516 46.0299 6.87725 47.8257L 8.28092 45.1743ZM 1.57527 28.1069C 1.95238 22.8274 4.24908 17.2214 7.05738 12.2926C 9.85594 7.38082 13.0864 3.2735 15.1783 1.02068L 12.9799 -1.02068C 10.7385 1.39316 7.3689 5.68584 4.45079 10.8074C 1.54242 15.9119 -0.994211 21.9726 -1.4171 27.8931L 1.57527 28.1069Z"/>
<path id="path2_fill" d="M 46 23C 46 35.7025 35.7025 46 23 46C 10.2975 46 0 35.7025 0 23C 0 10.2975 10.2975 0 23 0C 35.7025 0 46 10.2975 46 23Z"/>
<path id="path3_stroke_2x" d="M 43 23C 43 34.0457 34.0457 43 23 43L 23 49C 37.3594 49 49 37.3594 49 23L 43 23ZM 23 43C 11.9543 43 3 34.0457 3 23L -3 23C -3 37.3594 8.6406 49 23 49L 23 43ZM 3 23C 3 11.9543 11.9543 3 23 3L 23 -3C 8.6406 -3 -3 8.6406 -3 23L 3 23ZM 23 3C 34.0457 3 43 11.9543 43 23L 49 23C 49 8.6406 37.3594 -3 23 -3L 23 3Z"/>
<path id="path4_fill" d="M 76 38C 76 58.9868 58.9868 76 38 76C 17.0132 76 0 58.9868 0 38C 0 17.0132 17.0132 0 38 0C 58.9868 0 76 17.0132 76 38Z"/>
<path id="path5_stroke_2x" d="M 73 38C 73 57.33 57.33 73 38 73L 38 79C 60.6437 79 79 60.6437 79 38L 73 38ZM 38 73C 18.67 73 3 57.33 3 38L -3 38C -3 60.6437 15.3563 79 38 79L 38 73ZM 3 38C 3 18.67 18.67 3 38 3L 38 -3C 15.3563 -3 -3 15.3563 -3 38L 3 38ZM 38 3C 57.33 3 73 18.67 73 38L 79 38C 79 15.3563 60.6437 -3 38 -3L 38 3Z"/>
</defs>
</svg>
