<svg width="116" height="66" viewBox="0 0 116 66" version="1.1" xmlns="http://www.w3.org/2000/svg" xmlns:xlink="http://www.w3.org/1999/xlink">
<title>Group 4</title>
<desc>Created using Figma</desc>
<g id="Canvas" transform="translate(-4633 -1271)">
<g id="Group 4">
<g id="delivery-truck (1)">
<g id="Group">
<g id="Group">
<g id="Vector">
<use xlink:href="#path0_fill" transform="translate(4671.19 1323.57)" fill="#8BC24A"/>
</g>
</g>
</g>
<g id="Group">
<g id="Group">
<g id="Vector">
<use xlink:href="#path1_fill" transform="translate(4727.33 1323.57)" fill="#8BC24A"/>
</g>
</g>
</g>
</g>
<g id="Vector 2 (Stroke)">
<use xlink:href="#path2_fill" transform="translate(4633.5 1271.5)" fill="#8BC24A"/>
</g>
<g id="Ellipse 2.2">
<mask id="mask0_outline_ins">
<use xlink:href="#path3_fill" fill="white" transform="translate(4661.99 1313.94)"/>
</mask>
<g mask="url(#mask0_outline_ins)">
<use xlink:href="#path4_stroke_2x" transform="translate(4661.99 1313.94)" fill="#8BC24A"/>
</g>
</g>
<g id="Ellipse 2">
<use xlink:href="#path5_fill" transform="translate(4671.18 1323.16)" fill="#8BC24A"/>
</g>
<g id="Ellipse 2.3">
<mask id="mask1_outline_ins">
<use xlink:href="#path3_fill" fill="white" transform="translate(4718.28 1313.94)"/>
</mask>
<g mask="url(#mask1_outline_ins)">
<use xlink:href="#path4_stroke_2x" transform="translate(4718.28 1313.94)" fill="#8BC24A"/>
</g>
</g>
<g id="Ellipse 2.4">
<use xlink:href="#path5_fill" transform="translate(4727.47 1323.16)" fill="#8BC24A"/>
</g>
</g>
</g>
<defs>
<path id="path0_fill" d="M 2.43859 1.66846e-07C 1.09045 1.66846e-07 -6.70448e-07 1.0857 -6.70448e-07 2.42744C -6.70448e-07 3.76919 1.09068 4.85853 2.43859 4.85853C 3.78649 4.85853 4.88083 3.76942 4.88083 2.42744C 4.88083 1.08547 3.78672 1.66846e-07 2.43859 1.66846e-07Z"/>
<path id="path1_fill" d="M 2.43859 1.66846e-07C 1.09045 1.66846e-07 0 1.0857 0 2.42744C 0 3.76919 1.09068 4.85853 2.43859 4.85853C 3.78649 4.85853 4.88083 3.76942 4.88083 2.42744C 4.88083 1.08547 3.78672 1.66846e-07 2.43859 1.66846e-07Z"/>
<path id="path2_fill" fill-rule="evenodd" d="M 19.5282 1.5C 19.5282 0.671573 20.1998 0 21.0282 0L 78.4641 0C 79.2925 0 79.9641 0.671573 79.9641 1.5L 79.9641 14.4144L 95.1205 14.4144C 95.5193 14.4144 95.9017 14.5732 96.1832 14.8558L 114.563 33.3063C 114.843 33.5874 115 33.968 115 34.3649L 115 54.545C 115 55.3735 114.328 56.045 113.5 56.045L 106.033 56.045C 105.205 56.045 104.533 55.3735 104.533 54.545C 104.533 53.7166 105.205 53.045 106.033 53.045L 112 53.045L 112 34.9845L 94.4975 17.4144L 79.9641 17.4144L 79.9641 53.045L 86.5051 53.045C 87.3336 53.045 88.0051 53.7166 88.0051 54.545C 88.0051 55.3735 87.3336 56.045 86.5051 56.045L 49.7462 56.045C 48.9177 56.045 48.2462 55.3735 48.2462 54.545C 48.2462 53.7166 48.9177 53.045 49.7462 53.045L 76.9641 53.045L 76.9641 3L 22.5282 3L 22.5282 53.045L 30.2179 53.045C 31.0464 53.045 31.7179 53.7166 31.7179 54.545C 31.7179 55.3735 31.0464 56.045 30.2179 56.045L 21.0282 56.045C 20.1998 56.045 19.5282 55.3735 19.5282 54.545L 19.5282 50.8559L 14.7103 50.8559C 13.8818 50.8559 13.2103 50.1843 13.2103 49.3559C 13.2103 48.5274 13.8818 47.8559 14.7103 47.8559L 19.5282 47.8559L 19.5282 35.8649L 10.6897 35.8649C 9.86132 35.8649 9.18974 35.1933 9.18974 34.3649C 9.18974 33.5364 9.86132 32.8649 10.6897 32.8649L 19.5282 32.8649L 19.5282 23.1802L 6.09487 23.1802C 5.26645 23.1802 4.59487 22.5086 4.59487 21.6802C 4.59487 20.8518 5.26645 20.1802 6.09487 20.1802L 19.5282 20.1802L 19.5282 7.61261L 1.5 7.61261C 0.671573 7.61261 0 6.94104 0 6.11261C 0 5.28419 0.671573 4.61261 1.5 4.61261L 19.5282 4.61261L 19.5282 1.5Z"/>
<path id="path3_fill" d="M 22.9744 11.5315C 22.9744 17.9002 17.8314 23.0631 11.4872 23.0631C 5.14299 23.0631 0 17.9002 0 11.5315C 0 5.16284 5.14299 0 11.4872 0C 17.8314 0 22.9744 5.16284 22.9744 11.5315Z"/>
<path id="path4_stroke_2x" d="M 19.9744 11.5315C 19.9744 16.2543 16.1636 20.0631 11.4872 20.0631L 11.4872 26.0631C 19.4991 26.0631 25.9744 19.5462 25.9744 11.5315L 19.9744 11.5315ZM 11.4872 20.0631C 6.81073 20.0631 3 16.2543 3 11.5315L -3 11.5315C -3 19.5462 3.47524 26.0631 11.4872 26.0631L 11.4872 20.0631ZM 3 11.5315C 3 6.80879 6.81073 3 11.4872 3L 11.4872 -3C 3.47524 -3 -3 3.5169 -3 11.5315L 3 11.5315ZM 11.4872 3C 16.1636 3 19.9744 6.80879 19.9744 11.5315L 25.9744 11.5315C 25.9744 3.5169 19.4991 -3 11.4872 -3L 11.4872 3Z"/>
<path id="path5_fill" d="M 4.59487 2.30631C 4.59487 3.58004 3.56627 4.61261 2.29744 4.61261C 1.0286 4.61261 0 3.58004 0 2.30631C 0 1.03257 1.0286 0 2.29744 0C 3.56627 0 4.59487 1.03257 4.59487 2.30631Z"/>
</defs>
</svg>
