<svg width="61" height="96" viewBox="0 0 61 96" version="1.1" xmlns="http://www.w3.org/2000/svg" xmlns:xlink="http://www.w3.org/1999/xlink">
<title>Group 5</title>
<desc>Created using Figma</desc>
<g id="Canvas" transform="translate(-4360 -1243)">
<g id="Group 5">
<g id="Vector (Stroke)">
<use xlink:href="#path0_fill" transform="translate(4360.5 1243.5)" fill="#8BC24A"/>
</g>
<g id="$">
<use xlink:href="#path1_fill" transform="translate(4383.23 1267.56)" fill="#8BC24A"/>
</g>
<g id="Vector (Stroke)">
<use xlink:href="#path2_fill" transform="translate(4360.5 1316.5)" fill="#8BC24A"/>
</g>
</g>
</g>
<defs>
<path id="path0_fill" fill-rule="evenodd" d="M 0 1.5C 0 0.671573 0.671573 0 1.5 0L 14 0C 14.8284 0 15.5 0.671573 15.5 1.5C 15.5 2.17663 15.7153 3.22497 16.3173 4.06104C 16.8642 4.82063 17.7889 5.5 19.5 5.5C 21.2111 5.5 22.1358 4.82063 22.6827 4.06104C 23.2847 3.22497 23.5 2.17663 23.5 1.5C 23.5 0.671573 24.1716 0 25 0L 37.5 0C 38.2758 0 38.9236 0.591578 38.9938 1.3642C 39.0577 2.06695 39.3598 3.1619 40.0151 4.041C 40.6271 4.86199 41.5382 5.5 43 5.5C 44.4618 5.5 45.3729 4.86199 45.9849 4.041C 46.6402 3.1619 46.9423 2.06695 47.0062 1.3642C 47.0764 0.591578 47.7242 0 48.5 0L 58.5 0C 59.3284 0 60 0.671573 60 1.5L 60 94C 60 94.8284 59.3284 95.5 58.5 95.5L 1.5 95.5C 0.671573 95.5 0 94.8284 0 94L 0 1.5ZM 3 3L 3 92.5L 57 92.5L 57 3L 49.7433 3C 49.498 3.90805 49.0703 4.9216 48.3901 5.834C 47.2938 7.30468 45.5382 8.5 43 8.5C 40.4618 8.5 38.7062 7.30468 37.6099 5.834C 36.9297 4.9216 36.502 3.90805 36.2567 3L 26.3366 3C 26.1458 3.9061 25.7698 4.90772 25.1173 5.81396C 24.0142 7.34603 22.1889 8.5 19.5 8.5C 16.8111 8.5 14.9858 7.34603 13.8827 5.81396C 13.2302 4.90772 12.8542 3.9061 12.6634 3L 3 3Z"/>
<path id="path1_fill" d="M 11.6562 20.5781C 11.6562 19.6198 11.3177 18.8125 10.6406 18.1562C 9.97396 17.5 8.84375 16.9062 7.25 16.375C 5.03125 15.6979 3.41146 14.8177 2.39062 13.7344C 1.38021 12.6406 0.875 11.2552 0.875 9.57812C 0.875 7.86979 1.36979 6.46875 2.35938 5.375C 3.35938 4.28125 4.72917 3.63021 6.46875 3.42188L 6.46875 0L 8.79688 0L 8.79688 3.4375C 10.5469 3.67708 11.9062 4.41146 12.875 5.64062C 13.8542 6.86979 14.3438 8.55208 14.3438 10.6875L 11.4688 10.6875C 11.4688 9.21875 11.1198 8.05208 10.4219 7.1875C 9.72396 6.32292 8.78125 5.89062 7.59375 5.89062C 6.35417 5.89062 5.40625 6.21354 4.75 6.85938C 4.09375 7.49479 3.76562 8.38542 3.76562 9.53125C 3.76562 10.5938 4.10938 11.4427 4.79688 12.0781C 5.49479 12.7031 6.63542 13.276 8.21875 13.7969C 9.8125 14.3073 11.0521 14.875 11.9375 15.5C 12.8333 16.1146 13.4896 16.8333 13.9062 17.6562C 14.3333 18.4792 14.5469 19.4427 14.5469 20.5469C 14.5469 22.3073 14.0156 23.724 12.9531 24.7969C 11.901 25.8698 10.4219 26.5052 8.51562 26.7031L 8.51562 29.6875L 6.20312 29.6875L 6.20312 26.7031C 4.26562 26.526 2.74479 25.8385 1.64062 24.6406C 0.546875 23.4323 0 21.7969 0 19.7344L 2.89062 19.7344C 2.89062 21.1823 3.27083 22.2969 4.03125 23.0781C 4.79167 23.8594 5.86979 24.25 7.26562 24.25C 8.63021 24.25 9.70312 23.9219 10.4844 23.2656C 11.2656 22.6094 11.6562 21.7135 11.6562 20.5781Z"/>
<path id="path2_fill" fill-rule="evenodd" d="M 0 1.5C 0 0.671573 0.671573 0 1.5 0L 58.5 0C 59.3284 0 60 0.671573 60 1.5C 60 2.32843 59.3284 3 58.5 3L 3 3L 3 10L 58.5 10C 59.3284 10 60 10.6716 60 11.5C 60 12.3284 59.3284 13 58.5 13L 1.5 13C 0.671573 13 0 12.3284 0 11.5L 0 1.5Z"/>
</defs>
</svg>
