<svg width="258" height="80" viewBox="0 0 258 80" version="1.1" xmlns="http://www.w3.org/2000/svg" xmlns:xlink="http://www.w3.org/1999/xlink">
<title>Group 2.7</title>
<desc>Created using Figma</desc>
<g id="Canvas" transform="translate(-9076 427)">
<g id="Group 2.7">
<g id="Group">
<g id="Vector">
<use xlink:href="#path0_fill" transform="translate(9086.01 -427)" fill="#8BC24A"/>
</g>
<g id="Vector">
<use xlink:href="#path1_fill" transform="translate(9076 -391.448)" fill="#8BC24A"/>
</g>
<g id="Vector">
<use xlink:href="#path2_fill" transform="translate(9154.91 -391.741)" fill="#8BC24A"/>
</g>
<g id="Vector">
<use xlink:href="#path3_fill" transform="translate(9181.43 -367.046)" fill="#8BC24A"/>
</g>
<g id="Vector">
<use xlink:href="#path4_fill" transform="translate(9191.9 -391.212)" fill="#8BC24A"/>
</g>
<g id="Vector">
<use xlink:href="#path5_fill" transform="translate(9212.43 -391.212)" fill="#8BC24A"/>
</g>
<g id="Vector">
<use xlink:href="#path6_fill" transform="translate(9231.63 -391.212)" fill="#8BC24A"/>
</g>
<g id="Vector">
<use xlink:href="#path7_fill" transform="translate(9252.75 -391.212)" fill="#8BC24A"/>
</g>
<g id="Vector">
<use xlink:href="#path8_fill" transform="translate(9274.83 -391.212)" fill="#8BC24A"/>
</g>
<g id="Vector">
<use xlink:href="#path9_fill" transform="translate(9306.53 -391.212)" fill="#8BC24A"/>
</g>
<g id="Vector">
<use xlink:href="#path10_fill" transform="translate(9271.11 -354.589)" fill="#8BC24A"/>
</g>
<g id="Vector">
<use xlink:href="#path11_fill" transform="translate(9276.01 -352.617)" fill="#8BC24A"/>
</g>
<g id="Vector">
<use xlink:href="#path12_fill" transform="translate(9281.58 -354.065)" fill="#8BC24A"/>
</g>
<g id="Vector">
<use xlink:href="#path13_fill" transform="translate(9285.84 -354.73)" fill="#8BC24A"/>
</g>
<g id="Vector">
<use xlink:href="#path14_fill" transform="translate(9287.47 -352.612)" fill="#8BC24A"/>
</g>
<g id="Vector">
<use xlink:href="#path15_fill" transform="translate(9294.54 -355.008)" fill="#8BC24A"/>
</g>
<g id="Vector">
<use xlink:href="#path11_fill" transform="translate(9301.09 -352.617)" fill="#8BC24A"/>
</g>
<g id="Vector">
<use xlink:href="#path16_fill" transform="translate(9307.29 -355.008)" fill="#8BC24A"/>
</g>
<g id="Vector">
<use xlink:href="#path17_fill" transform="translate(9309.9 -354.621)" fill="#8BC24A"/>
</g>
<g id="Vector">
<use xlink:href="#path18_fill" transform="translate(9312.06 -352.492)" fill="#8BC24A"/>
</g>
<g id="Vector">
<use xlink:href="#path19_fill" transform="translate(9317.83 -352.617)" fill="#8BC24A"/>
</g>
<g id="Vector">
<use xlink:href="#path20_fill" transform="translate(9323.98 -352.628)" fill="#8BC24A"/>
</g>
</g>
</g>
</g>
<defs>
<path id="path0_fill" d="M 63.3023 27.3209L 9.318 27.3209L 13.6208 23.2051L 62.1568 23.2051C 61.6491 21.7953 61.0335 20.4231 60.3151 19.0998L 17.9126 19.0998L 22.2153 14.9892L 57.6348 14.9892C 56.487 13.5136 55.2029 12.1397 53.798 10.8839L 26.4797 10.8839L 30.777 6.76805L 48.0372 6.76805C 44.0036 4.50924 39.4989 3.129 34.844 2.72563C 34.844 2.72563 34.844 2.72563 34.844 2.68893C 34.8113 1.96528 34.4877 1.28166 33.9408 0.780663C 33.394 0.279669 32.666 -7.2173e-06 31.9088 -7.2173e-06C 31.1516 -7.2173e-06 30.4236 0.279669 29.8768 0.780663C 29.3299 1.28166 29.0063 1.96528 28.9736 2.68893C 28.9736 2.68893 28.9736 2.68893 28.9736 2.72563C 21.3516 3.39808 14.2349 6.66482 8.91775 11.9318C 3.60065 17.1988 0.436255 24.1163 -3.21164e-05 31.4263L 63.8121 31.4263C 63.739 30.0484 63.5686 28.6769 63.3023 27.3209Z"/>
<path id="path1_fill" d="M 79.5651 4.11582L 83.8622 6.40025e-06L -4.28218e-05 6.40025e-06C 0.34893 4.31571 1.65352 8.51106 3.82702 12.3077C 6.00053 16.1043 8.99326 19.4153 12.6067 22.021C 12.1853 22.643 11.905 23.3427 11.7839 24.0748C 11.6627 24.8069 11.7034 25.5552 11.9034 26.2713C 12.1033 26.9874 12.458 27.6555 12.9446 28.2324C 13.4312 28.8092 14.0389 29.282 14.7284 29.6203C 15.4179 29.9585 16.1738 30.1547 16.9475 30.1961C 17.7212 30.2375 18.4955 30.1233 19.2201 29.8607C 19.9448 29.5982 20.6038 29.1931 21.1546 28.6718C 21.7055 28.1505 22.1359 27.5244 22.4181 26.8341C 28.4849 28.6256 34.9712 28.653 41.0542 26.9128C 41.3412 27.5922 41.7724 28.2074 42.3205 28.7194C 42.8686 29.2314 43.5217 29.6291 44.2387 29.8875C 44.9556 30.1458 45.7208 30.2591 46.4859 30.2203C 47.2509 30.1814 47.9992 29.9913 48.6836 29.6618C 49.3679 29.3323 49.9734 28.8707 50.4617 28.306C 50.9501 27.7414 51.3107 27.086 51.5209 26.3813C 51.7311 25.6766 51.7864 24.9378 51.683 24.2117C 51.5796 23.4856 51.3199 22.7878 50.9203 22.1625C 54.613 19.5384 57.673 16.1857 59.893 12.3317L 70.9595 12.3317L 75.2568 8.21591L 61.8498 8.21591C 62.3668 6.87729 62.7844 5.50543 63.0995 4.11057L 79.5651 4.11582Z"/>
<path id="path2_fill" d="M 29.4962 16.1802C 28.0053 21.3988 25.716 25.3835 22.6282 28.1344C 19.4345 30.9657 15.4588 32.3813 10.7011 32.3813C 1.38675 32.3289 -1.84713 26.9285 0.999435 16.1802C 2.36243 11.028 4.65908 7.04322 7.88934 4.22593C 11.1196 1.40865 15.0806 7.6803e-06 19.7725 7.6803e-06C 24.479 7.6803e-06 27.6436 1.40865 29.266 4.22593C 30.8884 7.04322 30.9651 11.028 29.4962 16.1802ZM 20.8633 16.1802C 22.4674 10.5456 21.3822 7.72831 17.6075 7.72831C 16.6867 7.73293 15.7785 7.93283 14.9482 8.31361C 14.118 8.6944 13.3863 9.2466 12.806 9.93041C 11.4393 11.4125 10.3906 13.4957 9.65975 16.1802C 8.14329 21.7728 9.20851 24.5901 12.8553 24.632C 16.5022 24.674 19.1714 21.8567 20.8633 16.1802Z"/>
<path id="path3_fill" d="M 7.07618 7.18303L 5.35273e-06 7.18303L 2.01156 -5.1202e-06L 9.08787 -5.1202e-06L 7.07618 7.18303Z"/>
<path id="path4_fill" d="M 18.088 31.3484L 6.42328e-05 31.3484L 8.76998 1.28005e-05L 16.9918 1.28005e-05L 10.343 23.7354L 20.2092 23.7354L 18.088 31.3484Z"/>
<path id="path5_fill" d="M 8.16148 31.3484L 3.74691e-05 31.3484L 8.76995 1.28005e-05L 16.9314 1.28005e-05L 8.16148 31.3484Z"/>
<path id="path6_fill" d="M 27.3018 1.28005e-05L 9.67431 31.3484L 5.35273e-05 31.3484L 0.783827 1.28005e-05L 9.70174 1.28005e-05L 8.05738 20.4113L 17.7042 1.28005e-05L 27.3018 1.28005e-05Z"/>
<path id="path7_fill" d="M 18.0879 31.3484L -6.42328e-05 31.3484L 8.76985 1.28005e-05L 26.7099 1.28005e-05L 24.5832 7.59199L 14.865 7.59199L 13.6208 12.0329L 22.9717 12.0329L 20.8943 19.3208L 11.5763 19.3208L 10.3101 23.8403L 20.2092 23.8403L 18.0879 31.3484Z"/>
<path id="path8_fill" d="M 23.7226 31.3484L 14.4375 31.3484L 12.8753 22.2517L 10.7706 22.2517L 8.22174 31.3484L -4.81746e-05 31.3484L 8.76986 1.28005e-05L 20.4119 1.28005e-05C 23.9016 1.28005e-05 26.4066 0.940275 27.9267 2.8208C 29.4688 4.76423 29.7684 7.41895 28.8256 10.785C 28.2789 12.6994 27.3233 14.4847 26.0192 16.0281C 24.7397 17.5987 23.1767 18.9376 21.404 19.9814L 23.7226 31.3484ZM 20.1433 11.2726C 20.3046 10.8299 20.3702 10.3604 20.3363 9.89269C 20.3024 9.42496 20.1697 8.9687 19.9461 8.55148C 19.4089 7.74405 18.4169 7.34033 16.9698 7.34033L 14.9417 7.34033L 12.7492 15.1263L 14.7774 15.1263C 17.5801 15.1263 19.3687 13.8418 20.1433 11.2726Z"/>
<path id="path9_fill" d="M 27.4718 1.28005e-05L 12.1245 20.3694L 9.04946 31.3484L 0.827666 31.3484L 3.90267 20.3694L 0 1.28005e-05L 9.71815 1.28005e-05L 10.5678 11.5086L 18.1866 1.28005e-05L 27.4718 1.28005e-05Z"/>
<path id="path10_fill" d="M -6.42328e-05 0L 1.00852 0L 1.00852 6.65872L 4.35211 6.65872L 4.35211 7.4714L -6.42328e-05 7.4714L -6.42328e-05 0Z"/>
<path id="path11_fill" d="M 0.948279 2.98857C 0.925206 3.23742 0.959085 3.48807 1.04757 3.72313C 1.13606 3.95818 1.27704 4.17196 1.46067 4.34961C 1.6443 4.52727 1.86618 4.66451 2.11089 4.75181C 2.3556 4.8391 2.61727 4.87436 2.87767 4.85511C 3.41145 4.87119 3.94245 4.77637 4.43424 4.57721L 4.60968 5.27455C 4.01837 5.51125 3.38144 5.62562 2.74064 5.61011C 1.00858 5.61011 4.28218e-05 4.51953 4.28218e-05 2.89941C 4.28218e-05 1.2793 0.997519 5.1202e-06 2.6364 5.1202e-06C 4.4726 5.1202e-06 4.96042 1.54148 4.96042 2.53242C 4.95911 2.68497 4.94823 2.8373 4.92763 2.98857L 0.948279 2.98857ZM 3.94099 2.29123C 3.94099 1.6673 3.67237 0.718305 2.5268 0.718305C 1.49633 0.718305 1.04147 1.6306 0.959252 2.29123L 3.94099 2.29123Z"/>
<path id="path12_fill" d="M 1.86354 0L 1.86354 1.57293L 3.32711 1.57293L 3.32711 2.31743L 1.86354 2.31743L 1.86354 5.21688C 1.86354 5.88275 2.06095 6.26549 2.63099 6.26549C 2.83058 6.26765 3.02965 6.24474 3.223 6.19733L 3.26676 6.93134C 2.97623 7.02765 2.66973 7.07208 2.36242 7.06242C 2.15971 7.07353 1.95689 7.04278 1.76773 6.97221C 1.57857 6.90164 1.4075 6.79292 1.26618 6.65348C 0.955495 6.25081 0.814625 5.75107 0.871547 5.25358L 0.871547 2.32268L -1.07055e-05 2.32268L -1.07055e-05 1.57293L 0.871547 1.57293L 0.871547 0.283115L 1.86354 0Z"/>
<path id="path13_fill" d="M 1.74847 -1.02404e-05C 1.48504 0.909769 1.1174 1.78894 0.65223 2.62153L 0 2.70019C 0.306576 1.84676 0.535805 0.969679 0.685149 0.0786488L 1.74847 -1.02404e-05Z"/>
<path id="path14_fill" d="M 0.252103 4.48827C 0.65727 4.73047 1.12284 4.86443 1.60045 4.87625C 2.3459 4.87625 2.69669 4.51971 2.69669 4.07929C 2.69669 3.63887 2.40624 3.35574 1.64983 3.09359C 0.641294 2.74754 0.164452 2.21801 0.164452 1.57311C 0.164452 0.708004 0.893472 0.000187523 2.10482 0.000187523C 2.58726 -0.00511587 3.06301 0.108653 3.48609 0.330504L 3.22849 1.04356C 2.88217 0.840429 2.48362 0.733319 2.07738 0.7342C 1.47445 0.7342 1.13463 1.06977 1.13463 1.46824C 1.13463 1.86672 1.46896 2.11314 2.20344 2.38054C 3.17909 2.73707 3.67785 3.20371 3.67785 4.00066C 3.67785 4.94442 2.91057 5.61026 1.57864 5.61026C 1.02821 5.61981 0.484435 5.49342 -1.07055e-05 5.24327L 0.252103 4.48827Z"/>
<path id="path15_fill" d="M 5.2345 6.40025e-06L 5.2345 6.49619C 5.2345 6.97332 5.23455 7.51858 5.2784 7.88559L 4.36308 7.88559L 4.31919 6.95234C 4.13493 7.28206 3.8571 7.55536 3.51775 7.74085C 3.1784 7.92634 2.79128 8.0165 2.40077 8.00096C 1.04143 8.00096 -6.42328e-05 6.8999 -6.42328e-05 5.2693C -6.42328e-05 3.48141 1.15104 2.38036 2.52134 2.38036C 2.85463 2.36134 3.18716 2.42759 3.48483 2.57227C 3.7825 2.71694 4.03461 2.93481 4.21508 3.20352L 4.21508 6.40025e-06L 5.2345 6.40025e-06ZM 4.21508 4.71878C 4.2175 4.58128 4.20274 4.44397 4.17118 4.30981C 4.09832 3.98799 3.91208 3.69991 3.64367 3.49374C 3.37526 3.28758 3.041 3.17586 2.69677 3.17731C 1.6389 3.17731 1.01401 4.0634 1.01401 5.27455C 1.01401 6.36511 1.56213 7.26166 2.65837 7.26166C 3.00932 7.26055 3.3493 7.14443 3.62159 6.93263C 3.89388 6.72082 4.08203 6.42615 4.15472 6.09772C 4.18789 5.95847 4.20266 5.81579 4.19862 5.67303L 4.21508 4.71878Z"/>
<path id="path16_fill" d="M -6.42328e-05 6.40025e-06L 1.0195 6.40025e-06L 1.0195 7.86464L -6.42328e-05 7.86464L -6.42328e-05 6.40025e-06Z"/>
<path id="path17_fill" d="M 1.26653 0.613843C 1.26653 0.774452 1.19992 0.928485 1.08119 1.04205C 0.962467 1.15562 0.80134 1.21944 0.633437 1.21944C 0.465534 1.21944 0.30454 1.15562 0.185815 1.04205C 0.0670897 0.928485 0.00034282 0.774452 0.00034282 0.613843C -0.00268387 0.532951 0.0116854 0.452327 0.0424956 0.376938C 0.0733057 0.30155 0.119947 0.233004 0.179525 0.175522C 0.239104 0.118041 0.310406 0.0728349 0.388951 0.0427171C 0.467496 0.0125993 0.551658 -0.00178931 0.636247 0.000411453C 0.720815 -0.00262716 0.805031 0.0112553 0.883677 0.041149C 0.962323 0.0710428 1.03365 0.116286 1.09297 0.174018C 1.15229 0.231751 1.19837 0.300693 1.22826 0.376426C 1.25815 0.45216 1.27116 0.533014 1.26653 0.613843ZM 0.1264 7.49802L 0.1264 2.1291L 1.14596 2.1291L 1.14596 7.50326L 0.1264 7.49802Z"/>
<path id="path18_fill" d="M 1.07435 0L 2.17059 3.02002C 2.34729 3.47175 2.49905 3.93203 2.62543 4.39896L 2.65835 4.39896C 2.78442 3.95329 2.94892 3.50763 3.13528 3.02002L 4.23152 0L 5.30033 0L 3.10785 5.37416L 2.13767 5.37416L 5.35273e-05 0L 1.07435 0Z"/>
<path id="path19_fill" d="M 0.9483 2.98857C 0.925228 3.23742 0.959107 3.48807 1.04759 3.72313C 1.13608 3.95818 1.27706 4.17196 1.46069 4.34961C 1.64432 4.52727 1.8662 4.66451 2.11091 4.75181C 2.35562 4.8391 2.61729 4.87436 2.87769 4.85511C 3.41148 4.87119 3.94248 4.77637 4.43427 4.57721L 4.6097 5.27455C 4.01839 5.51125 3.38146 5.62562 2.74066 5.61011C 1.0086 5.61011 6.42328e-05 4.51953 6.42328e-05 2.89941C 6.42328e-05 1.2793 0.99754 5.1202e-06 2.63642 5.1202e-06C 4.47262 5.1202e-06 4.96044 1.54148 4.96044 2.53242C 4.95914 2.68497 4.94825 2.8373 4.92765 2.98857L 0.9483 2.98857ZM 3.94101 2.29123C 3.94101 1.6673 3.67239 0.718305 2.52682 0.718305C 1.49636 0.718305 1.04149 1.6306 0.959273 2.29123L 3.94101 2.29123Z"/>
<path id="path20_fill" d="M 0.0438067 1.8091C 0.0438067 1.17468 0.0438977 0.629397 4.81746e-05 0.131304L 0.893419 0.131304L 0.926338 1.17992L 0.97023 1.17992C 1.06608 0.85116 1.26825 0.559898 1.54792 0.347952C 1.8276 0.136006 2.1703 0.0142762 2.5268 0.000226471C 2.62467 -0.00174138 2.72239 0.00883758 2.81732 0.0316837L 2.81732 0.954472C 2.70386 0.931355 2.58806 0.920801 2.47207 0.923014C 2.12314 0.935924 1.7911 1.07045 1.53869 1.30127C 1.28628 1.53209 1.13095 1.84326 1.10177 2.17612C 1.07378 2.32672 1.05907 2.47931 1.05788 2.63226L 1.05788 5.49497L 0.0492933 5.49497L 0.0438067 1.8091Z"/>
</defs>
</svg>
