<svg width="30" height="30" viewBox="0 0 30 30" version="1.1" xmlns="http://www.w3.org/2000/svg" xmlns:xlink="http://www.w3.org/1999/xlink">
<title>Group 4</title>
<desc>Created using Figma</desc>
<g id="Canvas" transform="translate(-4700 -2541)">
<g id="Group 4">
<g id="Ellipse">
<use xlink:href="#path0_fill" transform="translate(4700 2541)" fill="#FFFFFF"/>
</g>
<g id="facebook-logo">
<g id="Group">
<g id="Vector">
<use xlink:href="#path1_fill" transform="translate(4701.76 2542.76)" fill="#4267B2"/>
</g>
</g>
</g>
</g>
</g>
<defs>
<path id="path0_fill" d="M 30 15C 30 23.2843 23.2843 30 15 30C 6.71573 30 0 23.2843 0 15C 0 6.71573 6.71573 0 15 0C 23.2843 0 30 6.71573 30 15Z"/>
<path id="path1_fill" d="M 13.2353 0C 5.92562 0 0 5.92562 0 13.2353C 0 20.545 5.92562 26.4706 13.2353 26.4706C 20.545 26.4706 26.4706 20.545 26.4706 13.2353C 26.4706 5.92562 20.545 0 13.2353 0ZM 18.2846 6.74018L 16.454 6.741C 15.0185 6.741 14.7409 7.42314 14.7409 8.42401L 14.7409 10.631L 18.1641 10.631L 18.1625 14.0878L 14.7412 14.0878L 14.7412 22.9586L 11.1707 22.9586L 11.1707 14.0878L 8.18598 14.0878L 8.18598 10.631L 11.1707 10.631L 11.1707 8.08172C 11.1707 5.12324 12.9783 3.51199 15.6172 3.51199L 18.2849 3.51605L 18.2849 6.74018L 18.2846 6.74018Z"/>
</defs>
</svg>
