<svg width="28" height="28" viewBox="0 0 28 28" version="1.1" xmlns="http://www.w3.org/2000/svg" xmlns:xlink="http://www.w3.org/1999/xlink">
<title>Group</title>
<desc>Created using Figma</desc>
<g id="Canvas" transform="translate(-4751 -2542)">
<g id="Group">
<g id="Vector">
<use xlink:href="#path0_fill" transform="translate(4759.96 2547.19)" fill="#DC4A38"/>
</g>
<g id="Vector">
<use xlink:href="#path1_fill" transform="translate(4758.69 2558.56)" fill="#DC4A38"/>
</g>
<g id="Vector">
<use xlink:href="#path2_fill" transform="translate(4751.76 2542.76)" fill="#DC4A38"/>
</g>
</g>
</g>
<defs>
<path id="path0_fill" d="M 5.5419 4.6878C 5.5419 2.85314 4.44814 -2.02471e-07 2.33943 -2.02471e-07C 1.67652 -2.02471e-07 0.966211 0.330916 0.558387 0.840831C 0.125651 1.37674 -1.65283e-08 2.0624 -1.65283e-08 2.72694C -1.65283e-08 4.43298 0.990582 7.26039 3.1781 7.26039C 3.81312 7.26039 4.49743 6.95628 4.90633 6.54819C 5.49099 5.96028 5.5419 5.1468 5.5419 4.6878Z"/>
<path id="path1_fill" d="M 5.43927 0.0254555C 5.23671 3.97469e-07 5.10943 -8.26413e-08 4.85542 -8.26413e-08C 4.62606 -8.26413e-08 3.25284 0.0500981 2.18562 0.409177C 1.62669 0.611735 -2.31396e-07 1.22374 -2.31396e-07 3.0324C -2.31396e-07 4.84188 1.75424 6.14253 4.47414 6.14253C 6.91539 6.14253 8.21225 4.9678 8.21225 3.3904C 8.21198 2.08705 7.37304 1.40166 5.43927 0.0254555Z"/>
<path id="path2_fill" d="M 13.2353 0C 5.92562 0 0 5.92562 0 13.2353C 0 20.545 5.92562 26.4706 13.2353 26.4706C 20.545 26.4706 26.4706 20.545 26.4706 13.2353C 26.4706 5.92562 20.545 0 13.2353 0ZM 10.152 23.003C 6.46478 23.003 4.68617 21.2461 4.68617 19.3594C 4.68617 18.4428 5.14301 17.1443 6.64324 16.252C 8.21875 15.2836 10.3556 15.1572 11.5003 15.0784C 11.1431 14.6202 10.7377 14.1362 10.7377 13.3466C 10.7377 12.9141 10.865 12.659 10.9906 12.353C 10.7106 12.379 10.4323 12.4039 10.1777 12.4039C 7.4838 12.4039 5.95839 10.3897 5.95839 8.40289C 5.95839 7.2325 6.49159 5.93212 7.58454 4.98947C 9.03439 3.792 11.0156 3.46704 12.3896 3.46704L 17.3988 3.46704L 15.7456 4.50582L 14.1706 4.50582C 14.755 4.98947 15.9736 6.00849 15.9736 7.94578C 15.9736 9.82973 14.9072 10.7239 13.84 11.5637C 13.5088 11.8943 13.1272 12.2509 13.1272 12.8123C 13.1272 13.3715 13.5091 13.677 13.788 13.9082L 14.7041 14.6199C 15.823 15.562 16.8402 16.4286 16.8396 18.1882C 16.8394 20.584 14.5243 23.003 10.152 23.003ZM 21.1237 12.9239L 21.1237 15.4867L 19.8655 15.4867L 19.8655 12.9239L 17.3219 12.9239L 17.3219 11.6519L 19.8655 11.6519L 19.8655 9.1048L 21.1237 9.1048L 21.1237 11.6519L 23.6795 11.6519L 23.6795 12.9239L 21.1237 12.9239Z"/>
</defs>
</svg>
