<svg width="170" height="53" viewBox="0 0 170 53" version="1.1" xmlns="http://www.w3.org/2000/svg" xmlns:xlink="http://www.w3.org/1999/xlink">
<title>Group</title>
<desc>Created using Figma</desc>
<g id="Canvas" transform="translate(-4156 -2534)">
<g id="Group">
<g id="Vector">
<use xlink:href="#path0_fill" transform="translate(4162.6 2534)" fill="#689F39"/>
</g>
<g id="Vector">
<use xlink:href="#path1_fill" transform="translate(4156 2557.55)" fill="#689F39"/>
</g>
<g id="Vector">
<use xlink:href="#path2_fill" transform="translate(4207.99 2557.36)" fill="#689F39"/>
</g>
<g id="Vector">
<use xlink:href="#path3_fill" transform="translate(4225.47 2573.72)" fill="#689F39"/>
</g>
<g id="Vector">
<use xlink:href="#path4_fill" transform="translate(4232.37 2557.71)" fill="#689F39"/>
</g>
<g id="Vector">
<use xlink:href="#path5_fill" transform="translate(4245.89 2557.71)" fill="#689F39"/>
</g>
<g id="Vector">
<use xlink:href="#path6_fill" transform="translate(4258.54 2557.71)" fill="#689F39"/>
</g>
<g id="Vector">
<use xlink:href="#path7_fill" transform="translate(4272.46 2557.71)" fill="#689F39"/>
</g>
<g id="Vector">
<use xlink:href="#path8_fill" transform="translate(4287.01 2557.71)" fill="#689F39"/>
</g>
<g id="Vector">
<use xlink:href="#path9_fill" transform="translate(4307.9 2557.71)" fill="#689F39"/>
</g>
<g id="Vector">
<use xlink:href="#path10_fill" transform="translate(4284.56 2581.97)" fill="#689F39"/>
</g>
<g id="Vector">
<use xlink:href="#path11_fill" transform="translate(4287.79 2583.28)" fill="#689F39"/>
</g>
<g id="Vector">
<use xlink:href="#path12_fill" transform="translate(4291.46 2582.32)" fill="#689F39"/>
</g>
<g id="Vector">
<use xlink:href="#path13_fill" transform="translate(4294.27 2581.88)" fill="#689F39"/>
</g>
<g id="Vector">
<use xlink:href="#path14_fill" transform="translate(4295.34 2583.28)" fill="#689F39"/>
</g>
<g id="Vector">
<use xlink:href="#path15_fill" transform="translate(4300 2581.69)" fill="#689F39"/>
</g>
<g id="Vector">
<use xlink:href="#path11_fill" transform="translate(4304.32 2583.28)" fill="#689F39"/>
</g>
<g id="Vector">
<use xlink:href="#path16_fill" transform="translate(4308.4 2581.69)" fill="#689F39"/>
</g>
<g id="Vector">
<use xlink:href="#path17_fill" transform="translate(4310.12 2581.95)" fill="#689F39"/>
</g>
<g id="Vector">
<use xlink:href="#path18_fill" transform="translate(4311.55 2583.36)" fill="#689F39"/>
</g>
<g id="Vector">
<use xlink:href="#path19_fill" transform="translate(4315.35 2583.28)" fill="#689F39"/>
</g>
<g id="Vector">
<use xlink:href="#path20_fill" transform="translate(4319.4 2583.27)" fill="#689F39"/>
</g>
</g>
</g>
<defs>
<path id="path0_fill" d="M 41.7109 18.1001L 6.13979 18.1001L 8.97497 15.3734L 40.9562 15.3734C 40.6216 14.4394 40.216 13.5303 39.7426 12.6536L 11.8029 12.6536L 14.638 9.93035L 37.9765 9.93035C 37.2202 8.95278 36.3741 8.04253 35.4484 7.21057L 17.4479 7.21057L 20.2795 4.48383L 31.6525 4.48383C 28.9947 2.98737 26.0265 2.07296 22.9593 1.80573C 22.9593 1.80573 22.9593 1.80573 22.9593 1.78142C 22.9377 1.302 22.7245 0.849098 22.3642 0.517189C 22.0038 0.18528 21.5242 -4.78146e-06 21.0252 -4.78146e-06C 20.5263 -4.78146e-06 20.0466 0.18528 19.6863 0.517189C 19.326 0.849098 19.1128 1.302 19.0912 1.78142C 19.0912 1.78142 19.0912 1.78142 19.0912 1.80573C 14.0689 2.25123 9.37958 4.41545 5.87605 7.90484C 2.37253 11.3942 0.287456 15.9771 -2.1162e-05 20.8199L 42.0469 20.8199C 41.9987 19.9071 41.8864 18.9984 41.7109 18.1001Z"/>
<path id="path1_fill" d="M 52.4268 2.72673L 55.2582 4.24017e-06L -2.8216e-05 4.24017e-06C 0.229916 2.85916 1.08953 5.63858 2.52169 8.15382C 3.95385 10.6691 5.92581 12.8626 8.30677 14.5889C 8.02909 15.001 7.84442 15.4645 7.76458 15.9495C 7.68474 16.4346 7.71158 16.9303 7.84332 17.4047C 7.97506 17.8792 8.20877 18.3218 8.52941 18.7039C 8.85005 19.0861 9.25046 19.3994 9.70478 19.6234C 10.1591 19.8475 10.6572 19.9775 11.167 20.0049C 11.6768 20.0324 12.187 19.9567 12.6645 19.7827C 13.142 19.6088 13.5762 19.3405 13.9391 18.9951C 14.3021 18.6497 14.5857 18.2349 14.7717 17.7776C 18.7691 18.9644 23.0431 18.9826 27.0513 17.8297C 27.2404 18.2799 27.5245 18.6874 27.8857 19.0266C 28.2469 19.3658 28.6772 19.6293 29.1496 19.8005C 29.622 19.9716 30.1262 20.0467 30.6303 20.0209C 31.1344 19.9952 31.6275 19.8692 32.0784 19.6509C 32.5293 19.4327 32.9283 19.1268 33.2501 18.7528C 33.5719 18.3787 33.8095 17.9445 33.948 17.4776C 34.0865 17.0108 34.1229 16.5213 34.0548 16.0403C 33.9866 15.5592 33.8155 15.0969 33.5523 14.6827C 35.9854 12.9442 38.0017 10.7231 39.4645 8.16977L 46.7564 8.16977L 49.588 5.44304L 40.7539 5.44304C 41.0945 4.55621 41.3697 3.64735 41.5773 2.72325L 52.4268 2.72673Z"/>
<path id="path2_fill" d="M 19.4355 10.7194C 18.4531 14.1767 16.9447 16.8166 14.9101 18.639C 12.8057 20.5147 10.1861 21.4526 7.05115 21.4526C 0.91375 21.4179 -1.21711 17.8401 0.658544 10.7194C 1.55664 7.30602 3.06995 4.66613 5.19841 2.79968C 7.32688 0.93323 9.93688 5.0882e-06 13.0284 5.0882e-06C 16.1297 5.0882e-06 18.2148 0.93323 19.2839 2.79968C 20.3529 4.66613 20.4034 7.30602 19.4355 10.7194ZM 13.7472 10.7194C 14.8042 6.98646 14.0891 5.12001 11.6019 5.12001C 10.9952 5.12307 10.3967 5.2555 9.84965 5.50777C 9.30257 5.76004 8.82045 6.12587 8.43806 6.5789C 7.53755 7.56075 6.84652 8.9409 6.36497 10.7194C 5.36575 14.4245 6.06764 16.2909 8.47059 16.3187C 10.8735 16.3465 12.6324 14.48 13.7472 10.7194Z"/>
<path id="path3_fill" d="M 4.66261 4.75876L 3.527e-06 4.75876L 1.32545 -3.39213e-06L 5.98815 -3.39213e-06L 4.66261 4.75876Z"/>
<path id="path4_fill" d="M 11.9185 20.7683L 4.2324e-05 20.7683L 5.77868 8.48033e-06L 11.1962 8.48033e-06L 6.81518 15.7247L 13.3162 15.7247L 11.9185 20.7683Z"/>
<path id="path5_fill" d="M 5.37773 20.7683L 2.4689e-05 20.7683L 5.77867 8.48033e-06L 11.1564 8.48033e-06L 5.37773 20.7683Z"/>
<path id="path6_fill" d="M 17.9896 8.48033e-06L 6.37456 20.7683L 3.527e-05 20.7683L 0.516477 8.48033e-06L 6.39264 8.48033e-06L 5.30914 13.5225L 11.6656 8.48033e-06L 17.9896 8.48033e-06Z"/>
<path id="path7_fill" d="M 11.9184 20.7683L -4.2324e-05 20.7683L 5.7786 8.48033e-06L 17.5996 8.48033e-06L 16.1982 5.02969L 9.7948 5.02969L 8.97495 7.97178L 15.1364 7.97178L 13.7676 12.8L 7.62781 12.8L 6.7935 15.7942L 13.3162 15.7942L 11.9184 20.7683Z"/>
<path id="path8_fill" d="M 15.6312 20.7683L 9.51309 20.7683L 8.48373 14.7417L 7.09692 14.7417L 5.41744 20.7683L -3.1743e-05 20.7683L 5.77861 8.48033e-06L 13.4498 8.48033e-06C 15.7492 8.48033e-06 17.3998 0.622932 18.4014 1.86878C 19.4175 3.1563 19.6149 4.91506 18.9937 7.14507C 18.6335 8.41337 18.0038 9.59609 17.1445 10.6186C 16.3014 11.6592 15.2715 12.5462 14.1035 13.2377L 15.6312 20.7683ZM 13.2728 7.46813C 13.379 7.1748 13.4223 6.86378 13.3999 6.55391C 13.3776 6.24404 13.2902 5.94177 13.1428 5.66536C 12.7889 5.13043 12.1352 4.86297 11.1817 4.86297L 9.84533 4.86297L 8.40067 10.0212L 9.73705 10.0212C 11.5838 10.0212 12.7623 9.17017 13.2728 7.46813Z"/>
<path id="path9_fill" d="M 18.1016 8.48033e-06L 7.98901 13.4947L 5.96284 20.7683L 0.545363 20.7683L 2.57154 13.4947L 0 8.48033e-06L 6.40345 8.48033e-06L 6.96327 7.62442L 11.9834 8.48033e-06L 18.1016 8.48033e-06Z"/>
<path id="path10_fill" d="M -4.2324e-05 0L 0.664533 0L 0.664533 4.41141L 2.86768 4.41141L 2.86768 4.9498L -4.2324e-05 4.9498L -4.2324e-05 0Z"/>
<path id="path11_fill" d="M 0.624837 1.97993C 0.609634 2.14479 0.631957 2.31085 0.690263 2.46657C 0.748568 2.62229 0.841461 2.76393 0.962459 2.88162C 1.08346 2.99931 1.22966 3.09024 1.3909 3.14807C 1.55215 3.2059 1.72457 3.22927 1.89614 3.21651C 2.24786 3.22717 2.59775 3.16435 2.9218 3.0324L 3.0374 3.49439C 2.64777 3.65121 2.22809 3.72697 1.80585 3.7167C 0.664572 3.7167 2.8216e-05 2.99419 2.8216e-05 1.92086C 2.8216e-05 0.847537 0.657282 3.39213e-06 1.73717 3.39213e-06C 2.94707 3.39213e-06 3.2685 1.02123 3.2685 1.67773C 3.26764 1.77879 3.26047 1.87971 3.2469 1.97993L 0.624837 1.97993ZM 2.59678 1.51794C 2.59678 1.10459 2.41979 0.475877 1.66495 0.475877C 0.98596 0.475877 0.686242 1.08027 0.632067 1.51794L 2.59678 1.51794Z"/>
<path id="path12_fill" d="M 1.22792 0L 1.22792 1.04206L 2.19229 1.04206L 2.19229 1.5353L 1.22792 1.5353L 1.22792 3.45618C 1.22792 3.89732 1.35799 4.15089 1.7336 4.15089C 1.86512 4.15232 1.99629 4.13714 2.12369 4.10573L 2.15252 4.59201C 1.96109 4.65582 1.75913 4.68525 1.55664 4.67885C 1.42307 4.68621 1.28943 4.66584 1.16479 4.61909C 1.04014 4.57234 0.927425 4.50031 0.834305 4.40793C 0.629592 4.14116 0.53677 3.81008 0.574277 3.4805L 0.574277 1.53878L -7.05401e-06 1.53878L -7.05401e-06 1.04206L 0.574277 1.04206L 0.574277 0.187564L 1.22792 0Z"/>
<path id="path13_fill" d="M 1.1521 -6.78427e-06C 0.978517 0.602722 0.736272 1.18517 0.429765 1.73677L 0 1.78888C 0.202008 1.22348 0.353051 0.642412 0.451456 0.0521049L 1.1521 -6.78427e-06Z"/>
<path id="path14_fill" d="M 0.166115 2.97348C 0.433086 3.13393 0.739857 3.22269 1.05457 3.23052C 1.54575 3.23052 1.7769 2.99431 1.7769 2.70253C 1.7769 2.41075 1.58551 2.22318 1.0871 2.0495C 0.422559 1.82025 0.10836 1.46943 0.10836 1.04219C 0.10836 0.469053 0.588724 0.000124234 1.3869 0.000124234C 1.70479 -0.00338927 2.01827 0.0719824 2.29704 0.218959L 2.1273 0.691356C 1.89911 0.556784 1.6365 0.485824 1.36882 0.486408C 0.971541 0.486408 0.747629 0.708723 0.747629 0.972712C 0.747629 1.2367 0.967922 1.39995 1.45188 1.57711C 2.09476 1.81331 2.4234 2.12246 2.4234 2.65044C 2.4234 3.27568 1.91782 3.7168 1.04019 3.7168C 0.677504 3.72312 0.319203 3.63939 -7.054e-06 3.47367L 0.166115 2.97348Z"/>
<path id="path15_fill" d="M 3.4491 4.24016e-06L 3.4491 4.30373C 3.4491 4.61982 3.44913 4.98106 3.47802 5.22421L 2.87491 5.22421L 2.84598 4.60593C 2.72457 4.82436 2.54151 5.00543 2.3179 5.12831C 2.0943 5.2512 1.83922 5.31093 1.58191 5.30063C 0.686217 5.30063 -4.2324e-05 4.57118 -4.2324e-05 3.49091C -4.2324e-05 2.30643 0.75844 1.57699 1.66135 1.57699C 1.88097 1.56439 2.10008 1.60828 2.29621 1.70413C 2.49235 1.79997 2.65847 1.94431 2.77738 2.12233L 2.77738 4.24016e-06L 3.4491 4.24016e-06ZM 2.77738 3.12619C 2.77898 3.0351 2.76926 2.94413 2.74846 2.85525C 2.70045 2.64204 2.57774 2.45119 2.40088 2.3146C 2.22402 2.17802 2.00377 2.10401 1.77695 2.10497C 1.0799 2.10497 0.668148 2.692 0.668148 3.49439C 0.668148 4.21688 1.02931 4.81085 1.75164 4.81085C 1.98289 4.81012 2.20691 4.73319 2.38633 4.59287C 2.56575 4.45255 2.68972 4.25732 2.73762 4.03974C 2.75947 3.94749 2.7692 3.85296 2.76654 3.75838L 2.77738 3.12619Z"/>
<path id="path16_fill" d="M -4.2324e-05 4.24017e-06L 0.671764 4.24017e-06L 0.671764 5.21032L -4.2324e-05 5.21032L -4.2324e-05 4.24017e-06Z"/>
<path id="path17_fill" d="M 0.834538 0.406671C 0.834538 0.513075 0.790646 0.615121 0.712416 0.69036C 0.634186 0.765598 0.528016 0.807876 0.417382 0.807876C 0.306748 0.807876 0.200667 0.765598 0.122437 0.69036C 0.0442065 0.615121 0.00022589 0.513075 0.00022589 0.406671C -0.00176845 0.35308 0.00769968 0.299666 0.028001 0.249722C 0.0483024 0.199777 0.0790352 0.154365 0.118292 0.116284C 0.157549 0.0782021 0.204532 0.0482531 0.256286 0.0283001C 0.308041 0.00834706 0.363497 -0.00118542 0.419234 0.000272588C 0.474957 -0.00174049 0.530449 0.00745661 0.582269 0.0272612C 0.63409 0.0470659 0.681087 0.0770394 0.720175 0.115287C 0.759264 0.153535 0.789625 0.199209 0.80932 0.249382C 0.829016 0.299556 0.837592 0.353122 0.834538 0.406671ZM 0.0832868 4.96744L 0.0832868 1.41053L 0.755093 1.41053L 0.755093 4.97091L 0.0832868 4.96744Z"/>
<path id="path18_fill" d="M 0.707905 0L 1.43024 2.00076C 1.54667 2.30004 1.64667 2.60497 1.72994 2.91431L 1.75163 2.91431C 1.8347 2.61906 1.94309 2.3238 2.06589 2.00076L 2.78822 0L 3.49247 0L 2.04781 3.56038L 1.40854 3.56038L 3.527e-05 0L 0.707905 0Z"/>
<path id="path19_fill" d="M 0.624851 1.97993C 0.609648 2.14479 0.631971 2.31085 0.690277 2.46657C 0.748582 2.62229 0.841475 2.76393 0.962473 2.88162C 1.08347 2.99931 1.22967 3.09024 1.39092 3.14807C 1.55216 3.2059 1.72458 3.22927 1.89616 3.21651C 2.24788 3.22717 2.59776 3.16435 2.92181 3.0324L 3.03741 3.49439C 2.64778 3.65121 2.2281 3.72697 1.80587 3.7167C 0.664586 3.7167 4.2324e-05 2.99419 4.2324e-05 1.92086C 4.2324e-05 0.847537 0.657296 3.39213e-06 1.73718 3.39213e-06C 2.94708 3.39213e-06 3.26852 1.02123 3.26852 1.67773C 3.26766 1.77879 3.26049 1.87971 3.24691 1.97993L 0.624851 1.97993ZM 2.5968 1.51794C 2.5968 1.10459 2.4198 0.475877 1.66496 0.475877C 0.985974 0.475877 0.686256 1.08027 0.632081 1.51794L 2.5968 1.51794Z"/>
<path id="path20_fill" d="M 0.028865 1.19853C 0.028865 0.778228 0.028925 0.416975 3.1743e-05 0.0869886L 0.588688 0.0869886L 0.61038 0.781697L 0.639301 0.781697C 0.702458 0.563894 0.835672 0.370932 1.01995 0.230518C 1.20423 0.0901041 1.43005 0.00945799 1.66495 0.000150037C 1.72944 -0.00115366 1.79383 0.0058549 1.85638 0.0209904L 1.85638 0.632337C 1.78162 0.617023 1.70531 0.610031 1.62889 0.611497C 1.39897 0.62005 1.18018 0.709174 1.01387 0.862091C 0.847554 1.01501 0.7452 1.22116 0.725977 1.44168C 0.707532 1.54145 0.697838 1.64254 0.697056 1.74388L 0.697056 3.64042L 0.0324802 3.64042L 0.028865 1.19853Z"/>
</defs>
</svg>
