<svg width="18" height="18" viewBox="0 0 18 18" version="1.1" xmlns="http://www.w3.org/2000/svg" xmlns:xlink="http://www.w3.org/1999/xlink">
<title>search</title>
<desc>Created using Figma</desc>
<g id="Canvas" transform="translate(-4470 110)">
<g id="search">
<g id="Group">
<g id="Group">
<g id="Vector">
<use xlink:href="#path0_fill" transform="translate(4470 -110)" fill="#FFFFFF"/>
</g>
</g>
</g>
<g id="Group">
<g id="Group">
<g id="Vector">
<use xlink:href="#path1_fill" transform="translate(4481.77 -98.2341)" fill="#FFFFFF"/>
</g>
</g>
</g>
</g>
</g>
<defs>
<path id="path0_fill" d="M 13.0102 2.23221C 11.5707 0.792738 9.65693 0 7.62121 0C 5.58548 0 3.67165 0.792738 2.23221 2.23221C 0.792738 3.67165 0 5.58548 0 7.62117C 0 9.65689 0.792738 11.5707 2.23221 13.0102C 3.67165 14.4496 5.58552 15.2424 7.62121 15.2424C 9.65689 15.2424 11.5707 14.4496 13.0102 13.0102C 14.4496 11.5707 15.2424 9.65689 15.2424 7.62117C 15.2424 5.58548 14.4496 3.67165 13.0102 2.23221ZM 7.62117 13.7881C 4.22068 13.7881 1.4542 11.0217 1.4542 7.62117C 1.4542 4.22068 4.22072 1.4542 7.62121 1.4542C 11.0217 1.4542 13.7881 4.22068 13.7881 7.62117C 13.7881 11.0217 11.0217 13.7881 7.62117 13.7881Z"/>
<path id="path1_fill" d="M 6.02114 4.99285L 1.24123 0.212968C 0.957269 -0.0709894 0.496898 -0.0709894 0.212941 0.212968C -0.0709807 0.496925 -0.0709807 0.957295 0.212941 1.24125L 4.99282 6.02113C 5.13478 6.16313 5.3209 6.23411 5.50698 6.23411C 5.69306 6.23411 5.87918 6.16313 6.02114 6.02113C 6.30506 5.73717 6.30506 5.2768 6.02114 4.99285Z"/>
</defs>
</svg>
